<?xml version="1.0" encoding="UTF-8" standalone="no"?>
<!-- Created with Inkscape (http://www.inkscape.org/) -->

<svg
   version="1.1"
   id="svg2"
   width="1223.8981"
   height="1199.1514"
   viewBox="0 0 1223.8981 1199.1514"
   sodipodi:docname="vinyl.svg"
   inkscape:version="1.1.2 (0a00cf5339, 2022-02-04)"
   xmlns:inkscape="http://www.inkscape.org/namespaces/inkscape"
   xmlns:sodipodi="http://sodipodi.sourceforge.net/DTD/sodipodi-0.dtd"
   xmlns="http://www.w3.org/2000/svg"
   xmlns:svg="http://www.w3.org/2000/svg">
  <sodipodi:namedview
     id="namedview6"
     pagecolor="#ffffff"
     bordercolor="#666666"
     borderopacity="1.0"
     inkscape:pageshadow="2"
     inkscape:pageopacity="0.0"
     inkscape:pagecheckerboard="0"
     showgrid="false"
     inkscape:zoom="0.65212785"
     inkscape:cx="612.60994"
     inkscape:cy="599.57568"
     inkscape:window-width="1320"
     inkscape:window-height="731"
     inkscape:window-x="0"
     inkscape:window-y="0"
     inkscape:window-maximized="1"
     inkscape:current-layer="svg2" />
  <defs
     id="defs6" />
  <g
     id="g8"
     transform="translate(-213.58516,-105.77072)"
     style="fill:#ffffff">
    <path
       style="fill:#ffffff;stroke-width:0.32"
       d="m 809.82801,1304.6263 c -76.94106,-3.2343 -153.12214,-20.6715 -224,-51.2719 -25.74874,-11.1165 -50.58538,-23.8316 -74.05222,-37.9109 -81.81878,-49.0884 -150.4416,-115.4339 -201.8879,-195.1885 -29.3969,-45.5724 -52.9894,-95.8311 -69.0596,-147.1164 -31.0467,-99.0804 -35.6267,-202.7997 -13.3845,-303.1119 19.8298,-89.4325 60.1742,-172.8634 117.7233,-243.44806 4.7837,-5.8673 13.3706,-15.94333 16.6609,-19.55024 0.176,-0.19293 1.472,-1.62749 2.88,-3.18787 49.4908,-54.84775 109.96502,-100.49394 177.60002,-134.05309 26.09779,-12.94922 49.1169,-22.50163 76.48,-31.73747 55.15293,-18.6157 110.14835,-28.87291 170.72,-31.841 16.39459,-0.80335 47.82547,-0.46487 65.92,0.7099 95.7424,6.21598 189.61089,34.38971 272.63999,81.83029 78.6833,44.95751 146.8641,106.78327 198.4023,179.90944 64.1362,91.0012 101.8894,195.8928 109.5902,304.48 1.7099,24.1117 1.8905,52.8449 0.4766,75.84 -5.6059,91.1745 -31.7684,178.5999 -77.0402,257.44 -30.1965,52.5869 -70.0698,102.0348 -114.44,141.92 -1.5663,1.408 -3.0056,2.7055 -3.1984,2.8834 -2.1407,1.9749 -9.2301,8.0892 -14.029,12.0995 -56.3609,47.0986 -119.2933,82.7627 -189.4698,107.3734 -8.6647,3.0387 -8.4001,2.9508 -18.058,5.9941 -52.09209,16.415 -105.0335,25.5923 -161.35369,27.9706 -8.65933,0.3657 -40.13645,0.3443 -49.12,-0.033 z m 35.83712,-35.8192 c 3.3424,-0.1958 6.14618,-0.4251 6.23062,-0.5095 0.0844,-0.084 -0.39411,-31.2138 -1.06342,-69.1763 -3.47571,-197.1361 -4.60954,-259.2946 -4.7321,-259.4171 -0.0742,-0.074 -1.85785,0.148 -3.96358,0.4938 -10.15466,1.6676 -15.81158,2.0435 -30.70864,2.0405 -11.19629,0 -15.12864,-0.117 -19.2,-0.5602 -22.04368,-2.3997 -38.80634,-6.8928 -55.68,-14.9247 -17.90368,-8.522 -34.78864,-22.0716 -46.34,-37.1862 -1.44099,-1.8855 -2.71312,-3.4373 -2.82691,-3.4485 -0.27747,-0.027 7.86233,-13.3688 -150.53159,246.7302 -12.711,20.8727 -23.48678,38.5459 -23.9462,39.2736 -0.45943,0.7278 -0.8353,1.381 -0.8353,1.4517 0,0.071 3.06,2.146 6.8,4.6119 15.70634,10.3557 31.95482,19.6049 52.62147,29.954 5.48983,2.7491 10.04285,4.9983 10.11789,4.9983 0.075,0 1.91936,0.8438 4.09853,1.875 39.92377,18.8927 87.32893,34.6562 131.06982,43.5843 30.54183,6.2339 57.56768,9.3979 91.13229,10.6692 5.56918,0.2109 31.74832,-0.108 37.75712,-0.46 z m 1.92288,-358.5356 c 59.99021,-5.6976 113.03872,-35.0451 148.1016,-81.9329 29.68629,-39.6979 43.79039,-90.5019 38.77199,-139.6596 -3.7816,-37.0427 -17.7839,-72.9074 -40.19093,-102.9431 -3.21162,-4.305 -8.35488,-10.6811 -10.66628,-13.2229 -15.69088,-17.2551 -29.53216,-29.0003 -47.05638,-39.9304 -28.56586,-17.8168 -59.39955,-28.2625 -94.4,-31.9803 -6.8321,-0.7256 -31.45008,-0.8376 -37.92,-0.1724 -28.87491,2.9688 -52.38915,9.6075 -76.16,21.5019 -40.22118,20.1258 -72.13296,51.9873 -91.51078,91.3668 -11.25236,22.867 -17.77399,46.1828 -20.22852,72.32 -0.65091,6.9314 -0.55379,27.9834 0.16167,35.04 1.88381,18.5804 5.75961,35.4939 11.9344,52.0801 29.23661,78.5331 101.92029,132.1152 187.17465,137.9844 6.2352,0.4292 25.59136,0.156 31.98858,-0.4516 z M 817.33115,753.9318 c -15.85338,-2.7941 -29.57584,-12.9432 -36.76759,-27.1932 -11.26611,-22.323 -4.14291,-48.9908 16.70519,-62.5409 14.78716,-9.6109 33.56832,-10.765 49.76224,-3.0579 14.47936,6.891 24.5423,19.6976 27.97251,35.5992 1.02822,4.7665 1.02243,13.9686 -0.0118,18.7996 -3.76467,17.5843 -15.68243,30.9196 -32.73123,36.6245 -7.22221,2.4167 -17.22557,3.1264 -24.92925,1.7687 z M 983.62081,524.8986 c 7.33469,-9.3754 19.56659,-25.0322 29.68769,-38 4.3957,-5.632 10.028,-12.832 12.5162,-16 2.4882,-3.168 8.6821,-11.088 13.7641,-17.6 5.0819,-6.512 12.2822,-15.728 16.0006,-20.48 3.7184,-4.752 18.3523,-23.472 32.5198,-41.6 14.1674,-18.128 27.3967,-35.048 29.3985,-37.6 2.0017,-2.552 5.1046,-6.5241 6.8954,-8.8269 1.7907,-2.3028 7.6399,-9.79079 12.9981,-16.63997 8.7897,-11.23552 23.1672,-29.62695 40.1749,-51.39095 3.3946,-4.3438 6.1719,-8.03283 6.1719,-8.19782 0,-0.32829 -7.5898,-6.87421 -14.3808,-12.40291 -65.8944,-53.64601 -150.0057,-91.99456 -240.97919,-109.86875 -23.16397,-4.55119 -48.85738,-7.91459 -67.74282,-8.86787 l -4.22281,-0.21316 -0.16701,0.76418 c -0.0919,0.42031 -1.46294,12.71619 -3.04685,27.32419 -1.5839,14.608 -6.55955,60.184 -11.05693,101.28 -9.968,91.08476 -11.97945,109.46056 -13.62566,124.47996 -7.20483,65.7334 -9.52842,87.1962 -9.44861,87.276 0.0517,0.052 2.59975,-0.5507 5.66234,-1.3388 24.81997,-6.3866 49.62736,-5.4381 74.67949,2.8552 17.34291,5.7412 34.27888,14.7996 50.56886,27.0473 8.14506,6.1239 14.32602,11.5238 21.44,18.7307 3.52,3.566 6.42192,6.4985 6.44874,6.5166 0.0269,0.018 2.61161,-3.243 5.74406,-7.247 z"
       id="path1540" />
  </g>
</svg>
