<?xml version="1.0" standalone="no"?>
<!DOCTYPE svg PUBLIC "-//W3C//DTD SVG 1.1//EN" "http://www.w3.org/Graphics/SVG/1.1/DTD/svg11.dtd" >
<svg xmlns="http://www.w3.org/2000/svg" xmlns:xlink="http://www.w3.org/1999/xlink" version="1.1">
<metadata></metadata>
<defs>
<font id="qebab_shadow_ffpregular" horiz-adv-x="1669" >
<font-face units-per-em="2048" ascent="1585" descent="-463" />
<missing-glyph horiz-adv-x="593" />
<glyph horiz-adv-x="0" />
<glyph unicode="&#xd;" horiz-adv-x="593" />
<glyph horiz-adv-x="0" />
<glyph horiz-adv-x="0" />
<glyph unicode=" "  horiz-adv-x="593" />
<glyph unicode="&#x09;" horiz-adv-x="593" />
<glyph unicode="&#xa0;" horiz-adv-x="593" />
<glyph unicode="!" horiz-adv-x="839" d="M82 1614h567l-10 -103h113l-107 -1075h-237q59 -10 106 -46t76 -85q61 -35 99 -96.5t38 -134.5q0 -55 -20.5 -103.5t-56.5 -84.5t-84 -56t-103 -20q-76 0 -136.5 37.5t-95.5 97.5q-59 35 -97 95t-38 136q0 47 16.5 91t45 79t67.5 58.5t86 31.5h-20l-10 103h-93zM113 1585 l102 -1018h301l102 1018h-505zM125 176q0 -49 18.5 -92t51 -75t74.5 -50t91 -18t91.5 18t75 50t51 75t18.5 92q0 47 -18.5 90t-50 75t-74.5 51.5t-93 19.5q-49 0 -91 -19.5t-74.5 -51.5t-51 -75t-18.5 -90z" />
<glyph unicode="&#x22;" horiz-adv-x="1220" d="M96 985v629h398v-103h102v-628h-397v102h-103zM125 1014h340v571h-340v-571zM604 985v629h397v-103h103v-628h-397v102h-103zM633 1014h340v571h-340v-571z" />
<glyph unicode="#" horiz-adv-x="1646" d="M53 328v334h244q4 31 10 56t12 52h-61v102h-102v334h243l76 408h385l-20 -103h123l-58 -305h27l76 408h383l-19 -103h121l-55 -305h61v-102h103v-334h-244l-23 -108h62v-103h102v-334h-242l-73 -389h-383l18 103h-121l54 286h-29q-16 -94 -35.5 -195.5t-36.5 -193.5h-385 l19 103h-121l53 286h-61v103h-103zM82 356h190l-73 -389h325l72 389h207l-70 -389h324l73 389h238v277h-188l51 268h239v277h-188l74 407h-324l-76 -407h-206l75 407h-325l-76 -407h-240v-277h191l-53 -268h-240v-277zM647 633l51 268h209l-53 -268h-207zM803 662h26l23 108 h-27z" />
<glyph unicode="$" horiz-adv-x="1468" d="M-10 233l272 324q70 -59 144 -104q63 -41 137.5 -73t146.5 -32q139 0 156 78q-53 16 -141 39q-162 37 -279 93t-182 151q-84 59 -128 145t-44 211q0 98 34.5 183t99 150.5t155 110.5t202.5 64v194h275v-102h102v-117q92 -27 179 -75t173 -119l-12 -19q29 -18 57.5 -39.5 t57.5 -44.5l-232 -338q-117 86 -216 133.5t-197 47.5q-53 0 -83 -16.5t-38 -45.5q27 -8 60.5 -15t76.5 -18q174 -39 291 -94t180 -147q90 -63 134 -155.5t44 -227.5q0 -215 -126 -347t-349 -167v-191h-274v103h-103v100q-133 29 -244.5 93.5t-226.5 164.5l8 10 q-55 43 -110 92zM29 236q127 -113 259 -174.5t304 -75.5v-185h217v187q227 29 351 153.5t124 335.5q0 111 -31.5 191t-96 137t-164 97t-232.5 69q-80 16 -132.5 31.5t-81 32t-39.5 36t-11 43.5q0 51 36.5 81t114.5 30q102 0 199.5 -45t206.5 -123l200 291 q-102 84 -208.5 133t-235.5 63v195h-217v-193q-117 -12 -208 -52t-154.5 -103.5t-96.5 -146.5t-33 -179q0 -104 35 -181t100.5 -131.5t159.5 -92t213 -64.5q78 -18 130.5 -35.5t83 -36t43 -38t12.5 -44.5q0 -55 -48.5 -89t-138.5 -34q-74 0 -149.5 31t-137.5 68 q-72 43 -137 98z" />
<glyph unicode="%" horiz-adv-x="2000" d="M70 1167q0 88 33.5 166t91 136.5t135.5 92t166 33.5q109 0 198.5 -49t147.5 -131q78 -55 126 -139t54 -182l354 520h262l-69 -103h172l-488 -716q31 10 64 15t67 5q106 0 196.5 -49t148.5 -131q84 -59 133 -150.5t49 -197.5q0 -90 -33 -169t-90 -137.5t-135 -92 t-166 -33.5q-109 0 -199 49t-149 131q-78 53 -125 138t-56 185l-331 -489h-262l69 102h-172l465 684q-61 -18 -129 -18q-109 0 -199 49t-149 131q-82 59 -131 149.5t-49 200.5zM98 1167q0 -82 32 -154.5t85 -127t126 -86t155 -31.5t153.5 31.5t125.5 86t86 127t32 154.5 t-32 155t-85 127t-125.5 86t-154.5 32t-155 -32t-126 -86t-85 -127t-32 -155zM317 0h191l1075 1585h-190zM375 1167q0 49 35.5 86t85.5 37q51 0 86.5 -37t35.5 -88t-36.5 -84.5t-85.5 -33.5t-85 33.5t-36 86.5zM506 1075q33 4 56.5 26.5t27.5 57.5q-33 -4 -56.5 -27.5 t-27.5 -56.5zM987 389q0 -84 32 -157.5t85 -128t125.5 -86t154.5 -31.5t154 31.5t126 86t85 128t31 157.5q0 80 -32 152.5t-85 127t-125 86t-154 31.5t-154.5 -31.5t-125.5 -86t-85 -127t-32 -152.5zM1264 385q0 51 34.5 88t85.5 37t87 -37t36 -90q0 -51 -36.5 -86 t-84.5 -35q-53 0 -87.5 36t-34.5 87zM1395 291q33 4 57.5 28.5t26.5 59.5q-35 -4 -57.5 -28.5t-26.5 -59.5z" />
<glyph unicode="&#x26;" horiz-adv-x="1599" d="M43 440q0 125 67.5 229.5t176.5 166.5q-25 18 -54.5 50t-57.5 78t-46 106t-18 136q0 115 45 196t119.5 133t171 76.5t196.5 24.5q51 0 106.5 -6t100.5 -14q53 -8 102 -21l-39 -75q29 -4 55.5 -9.5t45.5 -9.5q23 -6 41 -8l-158 -317q-18 0 -37 2q-16 2 -31.5 3t-25.5 1 q-68 0 -119 -34t-51 -106q0 -35 8 -59q10 -4 18.5 -4h18.5h180v162h410v-103h102v-59h70v-102h102v-361h-172v-137q0 -111 -42 -208t-121 -170t-193.5 -114t-257.5 -41q-182 0 -315.5 62.5t-209.5 165.5q-92 68 -140 161.5t-48 204.5zM72 440q0 -94 41 -178t115.5 -147.5 t182 -100.5t242.5 -37q137 0 246 39t184.5 108t115.5 161t40 196v166h172v303h-172v162h-352v-162h-209q-43 0 -76 17.5t-55.5 45t-33.5 62.5t-11 70q0 88 59.5 128t138.5 40q10 0 24.5 -1t25.5 -1q12 -2 26 -2l133 266q-39 8 -84 16q-39 6 -87 11.5t-95 5.5 q-96 0 -186 -22.5t-161 -72t-114 -125t-43 -182.5q0 -98 32 -167.5t71 -116.5q45 -53 102 -91q-123 -53 -197.5 -156.5t-74.5 -234.5zM471 481q0 45 18.5 76t48 51.5t67.5 29.5t77 9h205v-145q0 -84 -47 -142.5t-156 -58.5q-100 0 -156.5 52t-56.5 128zM602 379 q0 -10 1 -19.5t3 -19.5q37 -10 78 -10q94 0 134 50t40 122v14h-74q-35 0 -66.5 -7t-58 -24.5t-42 -43t-15.5 -62.5z" />
<glyph unicode="'" horiz-adv-x="714" d="M96 985v629h398v-103h102v-628h-397v102h-103zM125 1014h340v571h-340v-571z" />
<glyph unicode="(" horiz-adv-x="933" d="M23 637q0 152 37.5 293t101 270t148.5 246t182 221l350 -209l-21 -31l123 -71q-16 -25 -39.5 -62t-40.5 -61q-55 -86 -105 -166t-88 -163t-59.5 -171t-21.5 -188q0 -119 27.5 -221.5t75.5 -199.5t112.5 -194.5t138.5 -203.5l-350 -209q-25 27 -48.5 53.5t-45.5 54.5 l-8 -6q-96 104 -181.5 221t-149 245t-101 266t-37.5 286zM51 637q0 -145 36 -280.5t96.5 -258.5t141.5 -234.5t171 -209.5l305 182q-72 102 -134.5 196.5t-108.5 190.5t-72.5 199.5t-26.5 224.5q0 119 28.5 220.5t75.5 195.5t108.5 188.5t129.5 198.5l-305 182 q-90 -98 -171 -209.5t-141.5 -235.5t-96.5 -262.5t-36 -287.5z" />
<glyph unicode=")" horiz-adv-x="933" d="M-41 -172q74 106 138.5 203.5t112.5 195t75.5 199.5t27.5 221q0 100 -21.5 188.5t-59 171.5t-88 162.5t-105.5 165.5q-16 25 -40 62t-40 61l354 213l99 -106q94 -104 180 -221t149.5 -246t101.5 -270.5t38 -292.5q0 -147 -38 -286.5t-101.5 -267.5t-149.5 -245t-180 -221 l-351 211l19 28zM0 -164l305 -182q90 98 171 209.5t141.5 234.5t96.5 258.5t36 280.5q0 150 -36 288t-96.5 262t-141.5 235.5t-171 209.5l-305 -182q68 -104 129 -198.5t108.5 -188.5t76 -195.5t28.5 -220.5q0 -121 -26.5 -224.5t-72.5 -199.5t-108.5 -190t-134.5 -197z" />
<glyph unicode="*" horiz-adv-x="1206" d="M-8 1100l104 309l293 -100v305h303v-103h103v-163l188 73l45 -125l57 23l107 -289l-307 -106l211 -256l-256 -197l-84 117l-19 -15l-106 150l-176 -250l-256 191l12 16l-115 86l150 190l-152 41l23 68zM29 1120l315 -84l-207 -266l209 -156l199 283l198 -283l209 160 l-217 266l318 109l-86 235l-303 -116v317h-246v-317l-303 104z" />
<glyph unicode="+" horiz-adv-x="1634" d="M127 592v401h401v373h455v-102h102v-271h299v-102h103v-402h-402v-370h-454v102h-103v268h-299v103h-102zM156 621h401v-371h397v371h402v344h-402v372h-397v-372h-401v-344z" />
<glyph unicode="," horiz-adv-x="712" d="M-39 -203l199 629h440l-41 -102h143l-243 -629h-396l33 102h-135zM0 -174h336l223 571h-379z" />
<glyph unicode="-" horiz-adv-x="880" d="M49 342v401h670v-102h102v-401h-669v102h-103zM78 371h612v344h-612v-344z" />
<glyph unicode="." horiz-adv-x="839" d="M102 209q0 55 20.5 102t56.5 83t83 56.5t103 20.5q74 0 133 -38t94 -97q59 -33 97 -94.5t38 -135.5q0 -55 -20.5 -102t-55.5 -83t-82 -56.5t-102 -20.5q-76 0 -136.5 38t-92.5 98q-61 33 -98.5 93t-37.5 136zM131 209q0 -49 18.5 -91t50 -74t74 -50.5t91.5 -18.5t91 18.5 t72.5 50.5t49 74t18.5 91t-18.5 91t-49 74t-72.5 50t-91 18t-91.5 -18t-74 -50t-50 -74t-18.5 -91z" />
<glyph unicode="/" horiz-adv-x="839" d="M14 -61l459 1675h268l-28 -103h131l-459 -1675h-268l26 103h-129zM53 -33h207l442 1618h-206z" />
<glyph unicode="0" horiz-adv-x="1476" d="M47 778q0 176 31 323.5t102.5 255t189 168t292.5 60.5q174 0 291.5 -60.5t189 -168t102.5 -255t31 -323.5t-31 -324.5t-102.5 -257t-189 -170t-291.5 -61.5t-292 61.5t-189.5 170t-102.5 257t-31 324.5zM459 778q0 -100 9 -182t32.5 -140.5t63 -91t98.5 -32.5t98 32.5 t62.5 91t33.5 140.5t10 182t-10 181t-33.5 138.5t-62.5 89.5t-98 32t-98.5 -32t-63 -89.5t-32.5 -138t-9 -181.5z" />
<glyph unicode="1" horiz-adv-x="970" d="M29 1427l385 138h319v-1565h-430v1169l-190 -69z" />
<glyph unicode="2" horiz-adv-x="1406" d="M47 1253q49 92 129 166q68 61 176.5 113.5t263.5 52.5q102 0 203 -30.5t180.5 -90t129 -149.5t49.5 -207q0 -106 -49.5 -190t-124 -152t-161.5 -124t-162 -106.5t-125 -97.5t-50 -98h700v-340h-1130q-18 94 -19 178q0 150 52.5 258.5t130 188.5t170 137t170 108.5 t130 102.5t52.5 114q0 66 -51.5 109t-122.5 43q-59 0 -104.5 -28.5t-75.5 -63.5q-37 -41 -64 -92z" />
<glyph unicode="3" horiz-adv-x="1392" d="M29 199l192 290q43 -41 96 -73q45 -29 106.5 -51.5t137.5 -22.5q102 0 166 49t64 125q0 45 -25 82t-66 61.5t-96 38t-119 13.5h-112l-86 125l356 376h-545v342h1030v-247l-331 -355q88 -20 160.5 -55t125 -87t81 -123t28.5 -163q0 -102 -37 -200.5t-112.5 -175 t-190.5 -125t-268 -48.5q-135 0 -238.5 35t-175.5 76q-82 49 -141 113z" />
<glyph unicode="4" horiz-adv-x="1488" d="M29 373v268l516 922h614v-871h176v-319h-176v-373h-391v373h-739zM432 692h297v537z" />
<glyph unicode="5" horiz-adv-x="1486" d="M18 229l254 279q98 -86 202 -127t200 -41q113 0 167 53t54 139q0 92 -57.5 152.5t-157.5 60.5q-80 0 -150.5 -22.5t-128.5 -56.5l-262 106l45 782h1030v-337h-679l-15 -244q55 27 114.5 42t143.5 15q104 0 197.5 -27.5t162 -87t108.5 -153.5t40 -225q0 -268 -164 -415 t-465 -147q-205 0 -359.5 69t-279.5 185z" />
<glyph unicode="6" horiz-adv-x="1419" d="M33 672q0 170 49 333.5t147.5 292.5t247 208t348.5 79q74 0 136.5 -10t107.5 -23.5t71.5 -24.5t28.5 -14l-108 -350q-33 14 -70 25q-31 10 -71.5 17t-83.5 7q-141 0 -227.5 -77.5t-123.5 -194.5q33 23 97.5 42t156.5 19q113 0 206 -34.5t161 -97t105.5 -150.5t37.5 -195 q0 -102 -36.5 -201.5t-108.5 -176t-178.5 -124t-247.5 -47.5q-113 0 -227.5 36t-207.5 118t-151.5 215t-58.5 328zM459 508q0 -31 13 -60.5t39 -53t63.5 -39t84.5 -15.5q98 0 147.5 55.5t49.5 126.5q0 33 -11 64.5t-35 57.5t-62 41t-91 15q-74 0 -113.5 -27.5t-59 -62.5 t-22.5 -65.5t-3 -36.5z" />
<glyph unicode="7" horiz-adv-x="1255" d="M29 1202v350h1056v-397l-528 -1155h-442l557 1202h-643z" />
<glyph unicode="8" horiz-adv-x="1400" d="M29 465q0 90 25.5 154.5t62.5 108.5t80 71.5t77 46.5q-39 20 -77.5 48t-69.5 64.5t-49.5 87t-18.5 117.5q0 98 43 176t119 133.5t180.5 84t227.5 28.5q127 0 231.5 -30.5t179 -86t115.5 -133.5t41 -170q0 -72 -22.5 -125t-55.5 -92t-69.5 -62.5t-63.5 -37.5 q31 -18 73 -46t81 -73t65.5 -110.5t26.5 -157.5q0 -113 -44 -203t-123 -152.5t-189.5 -96.5t-245.5 -34q-131 0 -242 33t-190.5 96.5t-123.5 153.5t-44 207zM442 518q0 -76 55.5 -127t131.5 -51q78 0 132 52t54 128t-54 129t-130 53q-37 0 -72 -14t-60.5 -38.5t-41 -58.5 t-15.5 -73zM457 1116q0 -35 14 -64.5t37.5 -52t55.5 -36t67 -13.5q33 0 63.5 13.5t54 35t37 51t13.5 62.5q0 70 -51.5 116t-120.5 46q-70 0 -120 -45t-50 -113z" />
<glyph unicode="9" horiz-adv-x="1419" d="M47 1032q0 104 37 203.5t108.5 177.5t178 125t247.5 47q113 0 229 -33.5t209 -113.5t152.5 -211t59.5 -328q0 -170 -49.5 -336t-147.5 -297t-246.5 -212t-347.5 -81q-78 0 -141.5 10.5t-110.5 24.5q-53 16 -98 37l109 344q31 -14 67 -24q31 -10 71 -16.5t87 -6.5 q137 0 224 70.5t122 189.5q-35 -20 -96.5 -38.5t-149.5 -18.5q-115 0 -210 36.5t-162.5 101.5t-104.5 155t-37 194zM444 1040q0 -37 14.5 -71.5t40 -60t59.5 -41t73 -15.5q57 4 102 25q39 16 71 53t32 106q0 90 -57.5 139.5t-141.5 49.5q-47 0 -83 -15.5t-60.5 -42 t-37 -59.5t-12.5 -68z" />
<glyph unicode=":" horiz-adv-x="839" d="M96 209q0 55 20.5 103t56.5 84t84 56.5t103 20.5q74 0 134.5 -38t95.5 -97q59 -35 97 -96.5t38 -135.5q0 -55 -20.5 -102t-56.5 -83t-83 -56.5t-102 -20.5q-76 0 -136.5 38t-95.5 98q-61 35 -98 95t-37 134zM96 891q0 55 20.5 103t56.5 84t84 56.5t103 20.5 q74 0 133.5 -38t94.5 -97q61 -35 99 -96.5t38 -135.5q0 -55 -20.5 -103t-56.5 -84t-83 -56.5t-102 -20.5q-76 0 -136.5 37t-95.5 98q-59 35 -97 95.5t-38 136.5zM125 209q0 -49 18.5 -91t51 -74t74.5 -50.5t91 -18.5t91.5 18.5t74 50.5t50 74t18.5 91t-18.5 91t-50 75 t-73.5 51t-92 18q-49 0 -91 -18t-74.5 -51t-51 -75t-18.5 -91zM125 891q0 -49 18.5 -92t51 -75t74.5 -50.5t91 -18.5t91.5 18.5t74 50.5t50 75t18.5 92q0 47 -18.5 90t-50 74.5t-73.5 51t-92 19.5q-49 0 -91 -18t-74.5 -51t-51 -75t-18.5 -91z" />
<glyph unicode=";" horiz-adv-x="839" d="M-39 -203l199 629h440l-41 -102h143l-243 -629h-396l33 102h-135zM0 -174h336l223 571h-379zM129 891q0 53 20.5 101t56.5 84t83 57.5t102 21.5q74 0 134.5 -38t95.5 -99q61 -35 99 -96.5t38 -133.5q0 -55 -20.5 -103t-56.5 -84t-84 -56.5t-103 -20.5q-74 0 -134.5 37 t-95.5 96q-61 35 -98 96.5t-37 137.5zM158 891q0 -49 18.5 -92t50 -75t73.5 -50.5t91 -18.5t91 18.5t75 50.5t51.5 75t18.5 92q0 47 -18.5 90t-51.5 74.5t-75 51t-91 19.5t-91 -19.5t-73.5 -51t-50 -74.5t-18.5 -90z" />
<glyph unicode="&#x3c;" horiz-adv-x="1585" d="M115 324v438l1192 477v-143l102 41v-465l-582 -197l480 -160v-69l102 -33v-469l-1192 477v62zM143 342l1135 -453v406l-746 248l746 252v401l-1135 -453v-401z" />
<glyph unicode="=" horiz-adv-x="1607" d="M127 272v433h1231v-103h102v-432h-1231v102h-102zM127 881v434h1231v-103h102v-434h-1231v103h-102zM156 301h1173v375h-1173v-375zM156 909h1173v377h-1173v-377z" />
<glyph unicode="&#x3e;" horiz-adv-x="1585" d="M117 -154v469l583 193l-481 164v67l-102 35v465l1192 -477v-62l102 -41v-438l-1192 -477v143zM145 -111l1135 453v401l-1135 453v-401l746 -252l-746 -248v-406z" />
<glyph unicode="?" horiz-adv-x="1300" d="M-20 1083q0 100 34.5 201.5t105 184.5t180.5 135.5t261 52.5q158 0 286 -57.5t206 -163.5q94 -72 148 -178.5t54 -247.5q0 -123 -38.5 -210t-97 -144.5t-128 -89t-133.5 -42.5l-45 -110h-209q47 -16 85 -48t63 -75q59 -33 97 -94.5t38 -135.5q0 -55 -20.5 -102t-55.5 -83 t-82 -56.5t-102 -20.5q-76 0 -136.5 38t-93.5 97q-61 35 -98 94.5t-37 135.5q0 88 51.5 155.5t130.5 94.5h-28v102h-103v404l60 51q37 0 72.5 2t66.5 8h-430q0 25 2 50.5t6 51.5h-110zM8 1112h391q0 20 9.5 50t28 56.5t48 45t72.5 18.5q72 0 113 -46t41 -112 q0 -51 -24.5 -85.5t-69 -56t-103.5 -31t-129 -9.5l-43 -37v-360h350l43 108q59 8 127 36t126.5 82t97 138t38.5 203q0 121 -43 217t-118.5 163t-179 101.5t-222.5 34.5q-143 0 -247.5 -47t-172 -121t-100.5 -166t-33 -182zM291 164q0 -49 18.5 -91t50 -74t73.5 -50.5 t91 -18.5t91 18.5t73 50.5t49.5 74t18.5 91t-18.5 91t-49.5 73.5t-73 50t-91 18.5t-91 -18.5t-73.5 -50t-50 -73.5t-18.5 -91zM528 983q70 16 112 49t42 92q0 6 -1 12.5t-1 12.5q-6 0 -11 1t-10 1q-35 0 -59.5 -17.5t-39.5 -44t-23.5 -55t-8.5 -51.5z" />
<glyph unicode="@" horiz-adv-x="2136" d="M154 524q0 178 63.5 334t177 271.5t271 182t344.5 66.5q205 0 371.5 -77.5t283.5 -219.5q139 -117 218 -287.5t79 -381.5q0 -231 -103.5 -362.5t-322.5 -131.5q-68 0 -123 16.5t-96 36.5q-47 23 -86 56q-27 -23 -87.5 -52.5t-170.5 -29.5q-109 0 -187.5 39t-119.5 110 q-66 37 -103 101.5t-37 154.5q0 109 52.5 190t144.5 122l-10 22l-37 -18l-12 -7l-64 152q-117 -164 -117 -389q0 -121 34 -222.5t95 -179.5q80 -61 181.5 -95t218.5 -34q72 0 149.5 17.5t149.5 56.5l53 -125q12 4 24.5 10.5t24.5 12.5l88 -205q-104 -43 -201.5 -65.5 t-191.5 -22.5q-199 0 -368 79t-287 220q-137 115 -218 282.5t-81 372.5zM182 524q0 -178 64.5 -328.5t177.5 -261t262.5 -172t319.5 -61.5q92 0 179 19.5t177 56.5l-66 149q-63 -35 -137 -49t-147 -14q-141 0 -262 48t-209 135t-138.5 209t-50.5 269q0 139 45 260t130 211 t208 141.5t277 51.5q133 0 251.5 -42t208 -129t140.5 -222.5t51 -321.5q0 -55 -6 -101t-19.5 -80t-37 -53.5t-58.5 -19.5q-27 0 -41 9.5t-21 20.5t-8.5 22.5t-1.5 15.5v274q0 123 -35.5 206t-98 133t-149.5 71.5t-190 21.5q-92 0 -166.5 -12t-128.5 -29q-63 -18 -110 -41 l86 -211q33 16 72 31q35 10 83 20.5t107 10.5q88 0 143.5 -24.5t55.5 -78.5v-55q-29 18 -66 33q-31 12 -75 23.5t-97 11.5q-74 0 -137.5 -23.5t-109.5 -65.5t-72.5 -101.5t-26.5 -131.5q0 -133 87 -203.5t228 -70.5q70 0 120 14t81 33q37 23 59 49q25 -35 66 -61 q35 -23 93.5 -42.5t144.5 -19.5q205 0 301 123t96 342q0 182 -62.5 336t-172 264.5t-260 173t-326.5 62.5q-180 0 -332 -64.5t-262.5 -176.5t-172 -262.5t-61.5 -322.5zM856 383q0 45 38 77t103 32q57 0 103.5 -27t46.5 -80q0 -49 -40 -79t-101 -30q-59 0 -104.5 28 t-45.5 79zM862 1012q33 4 66 7t69 3q143 0 256 -41t177 -141q80 -51 126 -143.5t46 -237.5v-176q18 29 25 79t7 111q0 152 -35.5 266.5t-99.5 198.5q-80 59 -177 89t-208 30q-72 0 -134 -11.5t-118 -33.5zM991 305h15q41 0 69.5 14.5t38.5 40.5h-14q-41 0 -70 -16t-39 -39z " />
<glyph unicode="A" d="M-39 -29l547 1643h528l33 -103h70l549 -1642h-529l-31 102h-71l-31 105h-397q-14 -49 -31.5 -104.5t-30.5 -102.5h-504l33 102h-135zM0 0h442l60 207h518l59 -207h467l-530 1585h-488zM602 539l160 567l168 -567h-328zM770 567h123l-64 211z" />
<glyph unicode="B" horiz-adv-x="1558" d="M49 -29v1643h660q63 0 146 -4t166 -24.5t156.5 -60.5t120.5 -114q72 -47 117 -125t45 -201q0 -61 -15 -111t-40 -90t-56.5 -70t-62.5 -50q35 -29 64 -74q33 -23 63.5 -53.5t54 -72.5t38 -95t14.5 -121q0 -113 -35 -192.5t-91.5 -133t-131 -84t-153.5 -46t-157 -19.5 t-143 -4h-657v102h-103zM78 0h629q63 0 138 4t150.5 18.5t146 43t126 79t88.5 125t33 181.5q0 104 -35 173.5t-84 114.5t-103.5 67.5t-91.5 35.5q33 12 77 36.5t83 64.5t66.5 99.5t27.5 145.5q0 96 -31.5 162.5t-83 110.5t-117 69.5t-135 37t-136 14.5t-117.5 3h-631v-1585z M524 336v354h158q57 0 103 -7t80 -26.5t52.5 -53.5t18.5 -87q0 -59 -22.5 -95t-58.5 -54.5t-79 -24.5t-86 -6h-166zM524 991v264h148q37 0 72.5 -3t65.5 -15t48.5 -39t18.5 -74q0 -49 -17.5 -75.5t-46.5 -39t-67.5 -15.5t-81.5 -3h-140zM655 365h35q37 0 76 5t70.5 20.5 t51 46t19.5 79.5q0 20 -2 31q-27 8 -56.5 10t-64.5 2h-129v-194zM655 1020h9q37 0 69.5 2t58 12t41 29.5t15.5 56.5q-18 4 -36.5 4h-37.5h-119v-104z" />
<glyph unicode="C" horiz-adv-x="1724" d="M0 793q0 182 65.5 339.5t180 274.5t273.5 183.5t347 66.5q205 0 382 -81t304 -228q76 -68 136 -144l-400 -311q-20 33 -45.5 57.5t-54.5 44.5q-53 35 -109.5 51.5t-109.5 16.5q-76 0 -141.5 -27.5t-114.5 -77t-77 -118t-28 -150.5q0 -117 64 -209q88 -59 194 -59 q88 0 170 52t135 138l420 -301l-14 -20l117 -82q-119 -180 -307.5 -281.5t-417.5 -101.5q-215 0 -386 80t-288 219q-139 117 -217 287t-78 381zM29 793q0 -182 61.5 -335t172 -264.5t265 -174t338.5 -62.5q221 0 399.5 92t286.5 256l-372 266q-51 -80 -134 -129t-180 -49 q-80 0 -151.5 32t-123.5 87t-83 128t-31 153q0 88 31 162.5t83 127t122.5 82t152.5 29.5q94 0 185.5 -38t142.5 -118l352 275q-113 152 -291 233.5t-389 81.5q-182 0 -334.5 -64.5t-265 -177t-175 -265t-62.5 -328.5z" />
<glyph unicode="D" horiz-adv-x="1677" d="M49 -29v1643h543q117 0 230.5 -13.5t216 -47t191.5 -89t154 -139.5q117 -92 185.5 -238.5t68.5 -369.5q0 -182 -45 -316.5t-121.5 -228.5t-178 -153.5t-215 -92t-232.5 -45t-230 -12.5h-464v102h-103zM78 0h436q109 0 224.5 11.5t225 43t209 89t173 148.5t117.5 220 t44 307q0 231 -77.5 380t-206.5 235t-294 118.5t-337 32.5h-514v-1585zM528 340v907q125 -2 223.5 -26.5t167 -75.5t105.5 -133t37 -201q0 -109 -28.5 -196t-89 -148t-153 -94t-219.5 -33h-43zM659 373q193 23 283 138.5t90 299.5q0 70 -14 125t-41 100q-59 37 -139 56.5 t-179 23.5v-743z" />
<glyph unicode="E" horiz-adv-x="1533" d="M49 -29v1643h1331v-103h103v-397h-828v-106h529v-103h102v-399h-631v-137h738v-103h102v-397h-1343v102h-103zM78 0h1286v340h-840v297h631v342h-631v266h828v340h-1274v-1585z" />
<glyph unicode="F" horiz-adv-x="1445" d="M49 -29v1643h1290v-103h103v-397h-787v-108h529v-103h102v-411h-631v-623h-503v102h-103zM78 0h446v623h631v354h-631v268h787v340h-1233v-1585z" />
<glyph unicode="G" horiz-adv-x="1787" d="M0 776q0 190 65.5 352t180 279t273.5 183.5t347 66.5q201 0 372 -82t294 -227q66 -57 127 -131l-328 -259h314v-102h102v-504q-49 -141 -150 -254q-43 -47 -101 -93t-136 -82t-175.5 -57.5t-215.5 -21.5q-227 0 -400.5 77t-285.5 212q-137 111 -210 274.5t-73 368.5z M29 776q0 -176 58 -323.5t168 -254t264.5 -165t346.5 -58.5q115 0 209 20.5t168 55.5t131.5 78t98.5 90q98 106 143 244v467h-752v-375h340q-47 -68 -134 -115t-196 -47q-88 0 -160.5 32t-125.5 87t-83 128t-30 157q0 86 31 158.5t84 127t123.5 85t152.5 30.5q90 0 167 -40 t130 -111l353 276q-111 141 -278 223t-372 82q-182 0 -334.5 -64.5t-265 -178t-175 -269t-62.5 -340.5zM606 694q0 -59 16.5 -113.5t45.5 -99.5q88 -59 206 -59q16 0 32 1t32 3v100h-102v432h378q-53 51 -116.5 80t-128.5 29q-76 0 -141.5 -28.5t-114.5 -79t-78 -118 t-29 -147.5z" />
<glyph unicode="H" horiz-adv-x="1640" d="M49 -29v1643h508v-103h102v-479h306v582h505v-103h103v-1642h-506v102h-102v559h-306v-661h-507v102h-103zM78 0h450v662h465v-662h449v1585h-449v-581h-465v581h-450v-1585z" />
<glyph unicode="I" horiz-adv-x="720" d="M45 -29v1643h510v-103h102v-1642h-510v102h-102zM74 0h452v1585h-452v-1585z" />
<glyph unicode="J" horiz-adv-x="1357" d="M-33 270l309 293q10 -18 25 -39q12 -16 28.5 -36.5t37.5 -38.5l12 12q4 -4 8 -12q4 -6 8 -14.5t11 -16.5q51 -35 104 -35q92 0 130 64.5t38 168.5v1000h508v-103h102v-964q0 -164 -39 -294t-120.5 -221t-208.5 -140.5t-306 -49.5q-96 0 -172.5 22.5t-137 57.5t-103.5 76 t-72 76q-43 35 -72.5 68.5t-50.5 62.5q-23 33 -39 63zM2 264q45 -82 115 -145q59 -53 156.5 -98.5t238.5 -45.5q170 0 292 47.5t200.5 134.5t115.5 212t37 282v936h-450v-971q0 -115 -45.5 -188.5t-151.5 -73.5q-57 0 -101 24.5t-75 55.5q-37 37 -64 82z" />
<glyph unicode="K" horiz-adv-x="1708" d="M49 -29v1643h508v-103h102v-301q72 102 142.5 204t142.5 200h598l-74 -103h177l-541 -755q141 -213 294.5 -443.5t295.5 -443.5h-607l-67 102h-35l-326 496v-598h-507v102h-103zM78 0h450v721l473 -721h535l-569 856l520 729h-529l-430 -606v606h-450v-1585z" />
<glyph unicode="L" horiz-adv-x="1357" d="M49 -29v1643h504v-103h102v-1132h580v-103h102v-407h-1185v102h-103zM78 0h1128v350h-682v1235h-446v-1585z" />
<glyph unicode="M" horiz-adv-x="1902" d="M49 -29v1643h549l51 -103h51l211 -417l277 520h543v-103h102v-1642h-502v102h-102v553l-242 -426l-80 142l-22 -39l-240 426v-758h-493v102h-103zM78 0h436v918l371 -660l372 662v-920h445v1585h-498l-319 -600l-303 600h-504v-1585z" />
<glyph unicode="N" d="M49 -29v1643h516l62 -103h41l331 -548v651h498v-103h102v-1642h-434l-65 102h-37l-408 650v-752h-503v102h-103zM78 0h446v885l555 -885h389v1585h-440v-790l-479 790h-471v-1585z" />
<glyph unicode="O" horiz-adv-x="1882" d="M18 799q0 182 66 338.5t180.5 272.5t273 181.5t347.5 65.5q205 0 373.5 -78t285.5 -217q139 -117 218 -287t79 -379q0 -190 -64.5 -348t-178 -269.5t-270.5 -173t-341 -61.5q-217 0 -390 78t-290 219q-137 115 -213 282t-76 376zM47 799q0 -182 61.5 -334t172 -260.5 t265.5 -169t339 -60.5q178 0 329.5 59.5t262 167t172 260t61.5 337.5q0 180 -62.5 332.5t-173 263t-261 172t-328.5 61.5q-182 0 -335 -63.5t-265.5 -175t-175 -263t-62.5 -327.5zM498 799q0 88 29.5 160.5t82 124t123 79t152.5 27.5q76 0 143.5 -26.5t118.5 -77t82 -123 t31 -164.5q0 -82 -30 -155t-81 -128t-119.5 -87t-144.5 -32q-80 0 -150.5 33t-123 88t-83 128t-30.5 153zM629 696q0 -119 63 -213q86 -57 193 -57q70 0 133 29.5t110.5 81t75 119t27.5 143.5q0 61 -15.5 113.5t-41.5 93.5q-82 53 -187 53q-76 0 -141.5 -25.5t-113.5 -74 t-75.5 -115t-27.5 -148.5z" />
<glyph unicode="P" horiz-adv-x="1492" d="M49 -29v1643h623q86 0 175 -9.5t172 -34t153.5 -69.5t119.5 -115q86 -59 138.5 -159.5t52.5 -255.5q0 -152 -52.5 -255.5t-137.5 -168t-194.5 -93t-224.5 -28.5h-219v-557h-503v102h-103zM78 0h446v557h248q111 0 214.5 26.5t185 88t131 160t49.5 241.5 q0 164 -62.5 264.5t-161 155.5t-219.5 73.5t-237 18.5h-594v-1585zM524 891v358h125q51 0 97.5 -8t80 -29.5t54 -56.5t20.5 -90t-20.5 -90t-55 -53.5t-80 -24.5t-94.5 -6h-127zM655 920q43 0 82 5t70 20.5t48 44t17 75.5q0 10 -1 19.5t-3 19.5q-27 8 -56.5 11t-59.5 3h-97 v-198z" />
<glyph unicode="Q" horiz-adv-x="1933" d="M47 791q0 182 65.5 339.5t180.5 274.5t273.5 184.5t344.5 67.5q205 0 373 -79t285 -218q141 -117 221 -289t80 -383q0 -231 -93.5 -412.5t-252.5 -291.5l20 -25q0 -16 -1 -29.5t-3 -27.5l82 -17l25 -28q0 -84 -21.5 -143.5t-58.5 -97.5t-87 -55.5t-108 -17.5 q-45 0 -90 17.5t-86 38t-78 38t-63 17.5q-33 0 -49.5 -17.5t-32.5 -66.5l-236 43v44t2 40l-104 18q0 59 5 102.5t19 76.5q-193 78 -315 227q-141 117 -219 288t-78 382zM76 791q0 -162 48 -300.5t136 -246t213 -178t277 -95.5q-41 -35 -63.5 -90t-22.5 -141l188 -35 q16 47 36.5 63.5t63.5 16.5q33 0 71 -17.5t79 -38t84 -38t84 -17.5q51 0 96 15.5t78 50.5t52.5 88t19.5 131l-187 35q-16 -47 -36.5 -62.5t-63.5 -15.5q-35 0 -73 17.5t-79 39.5q145 25 267 95.5t209 176t136.5 244t49.5 302.5q0 180 -62.5 333.5t-173 266t-262 175 t-330.5 62.5q-180 0 -333.5 -64.5t-265 -178t-174 -266t-62.5 -328.5zM524 786q0 88 30 164t82 129.5t122.5 84t152.5 30.5q76 0 143.5 -28.5t119 -83t82 -129.5t30.5 -167q0 -82 -29.5 -153.5t-81 -125.5t-120 -86t-144.5 -32q-80 0 -150.5 32t-122.5 86t-83 127t-31 152z M655 684q0 -117 64 -209q86 -57 192 -57q70 0 133.5 29.5t110.5 80t74.5 116.5t27.5 142q0 127 -61 224q-82 53 -182 53q-76 0 -141.5 -27.5t-113.5 -79t-76 -121t-28 -151.5z" />
<glyph unicode="R" horiz-adv-x="1576" d="M49 -29v1643h852q154 0 264.5 -54.5t175.5 -146.5q88 -63 135.5 -157.5t47.5 -208.5q0 -68 -14.5 -124.5t-39 -101.5t-56.5 -80.5t-64 -60.5q16 -18 32 -49q59 -31 96.5 -90.5t37.5 -157.5v-395l16 -119h-512v102h-102v308q0 33 -3.5 62.5t-11.5 53.5q-41 14 -106 15 h-138v-541h-507v102h-103zM78 0h450v541h166q82 0 132.5 -19.5t77 -53.5t34.5 -83t8 -106v-279h451l-13 86v399q0 70 -21.5 117t-57 78t-83.5 47t-104 21q33 6 80 34.5t90 78.5t74 122t31 166q0 92 -34 172t-97.5 138.5t-154.5 92t-206 33.5h-823v-1585zM528 874v373h193 q84 0 142.5 -44t58.5 -134q0 -57 -24 -94t-62.5 -59.5t-86 -32t-92.5 -9.5h-129zM659 903q41 0 82 8.5t75 26.5t55.5 50t21.5 81q0 16 -4 37q-35 10 -66 10h-164v-213z" />
<glyph unicode="S" horiz-adv-x="1611" d="M27 164l237 387q49 -35 112.5 -63.5t131 -50t134.5 -34t120 -12.5q92 0 133 9.5t49 37.5q-29 10 -66.5 20.5t-84.5 20.5q-203 45 -335 100.5t-200 157.5q-88 61 -130 151.5t-42 231.5q0 121 48 220.5t136 170t212 108.5t276 38q215 0 380 -51.5t310 -151.5l-18 -29 q31 -16 60.5 -34.5t59.5 -38.5l-241 -377q-119 82 -228.5 121t-230.5 39q-72 0 -104.5 -19.5t-43.5 -46.5q53 -18 138 -37q207 -49 339 -111.5t199 -160.5q92 -66 135 -157t43 -226q0 -139 -50 -239.5t-142 -165t-221 -96.5t-287 -32q-100 0 -200.5 16.5t-193.5 46.5 t-178 68.5t-155 85.5l18 33q-33 16 -62.5 33.5t-57.5 36.5zM66 174q129 -86 309 -142.5t379 -56.5q152 0 275.5 30t211.5 91.5t136 156.5t48 226q0 117 -34.5 199t-106.5 142.5t-184.5 103.5t-265.5 80q-78 18 -129.5 33.5t-82 31.5t-43 34.5t-12.5 43.5q0 43 38 81t143 38 q125 0 232 -36t218 -112l209 328q-131 90 -285.5 136t-363.5 46q-145 0 -264 -36t-203 -102.5t-130 -160.5t-46 -209q0 -123 35.5 -206t107.5 -140t181.5 -94t256.5 -70q82 -18 135.5 -35.5t85 -36t45 -39t13.5 -42.5q0 -59 -46 -77t-167 -18q-55 0 -122 11.5t-133.5 31 t-128 47t-106.5 58.5z" />
<glyph unicode="T" horiz-adv-x="1570" d="M-10 1206v408h1468v-103h103v-407h-482v-1235h-506v102h-102v1133h-379v102h-102zM18 1235h482v-1235h448v1235h482v350h-1412v-350z" />
<glyph unicode="U" horiz-adv-x="1613" d="M18 680v934h506v-103h103v-925q0 -41 3 -86t17 -84q33 -12 82 -13q74 0 116 28t62.5 69t25.5 91t5 97v926h504v-103h102v-933q0 -123 -27.5 -253t-104.5 -236.5t-216 -175.5t-362 -69q-227 0 -366.5 64.5t-215.5 165.5q-74 55 -120 125.5t-70.5 150.5t-34 165t-9.5 165z M47 680q0 -121 23.5 -246t95.5 -226.5t207 -167t358 -65.5q215 0 348 65.5t207 168t100.5 227.5t26.5 244v905h-446v-897q0 -51 -5.5 -106.5t-29 -101.5t-71.5 -75.5t-132 -29.5q-82 0 -129 29.5t-69.5 75.5t-28.5 101.5t-6 106.5v897h-449v-905z" />
<glyph unicode="V" horiz-adv-x="1695" d="M-43 1614h508l35 -103h67l252 -714l285 817h508l-39 -103h141l-606 -1646h-446l-39 102h-64zM-2 1585l582 -1589h405l586 1589h-447l-338 -969l-342 969h-446z" />
<glyph unicode="W" horiz-adv-x="2150" d="M-39 1614h483l29 -103h74l196 -673l134 434h272l31 -103h71l103 -340l241 785h471l-32 -103h135l-529 -1642h-403l-29 102h-73l-58 201q-23 -78 -45 -154.5t-41 -148.5h-405l-33 102h-70zM0 1585l504 -1585h362l146 520l145 -520h361l510 1585h-412l-297 -964l-191 622 h-231l-190 -622l-283 964h-424z" />
<glyph unicode="X" horiz-adv-x="1839" d="M-12 -29l563 836l-541 807h592l64 -103h39l180 -292l26 51l215 344h584l-70 -103h172l-542 -800q68 -100 139.5 -207t144 -215.5t144 -215t137.5 -204.5h-596l-63 102h-39l-205 334l-45 -88l-215 -348h-582l68 102h-170zM43 0h510l207 334l94 176l94 -176l205 -334h524 l-544 813l522 772h-512l-207 -330l-76 -139l-72 139l-202 330h-520l520 -778z" />
<glyph unicode="Y" horiz-adv-x="1808" d="M-51 1614h592l55 -103h47l223 -413l291 516h590l-68 -103h170l-655 -1009v-633h-508v102h-102v631zM0 1585l612 -975v-610h451v614l631 971h-520l-332 -588l-318 588h-524z" />
<glyph unicode="Z" horiz-adv-x="1673" d="M49 -29v389l684 758h-557v103h-102v393h1429v-103h103v-348l-703 -798h600v-103h103v-393h-1454v102h-103zM78 0h1397v336h-828l828 942v307h-1373v-336h787l-811 -899v-350z" />
<glyph unicode="[" horiz-adv-x="968" d="M166 -266v1880h676v-103h102v-292h-256v-1190h154v-103h102v-295h-676v103h-102zM195 -238h618v238h-256v1350h256v235h-618v-1823z" />
<glyph unicode="\" horiz-adv-x="839" d="M-35 1714h271l26 -102h76l512 -1884h-270l-29 102h-74zM4 1686l496 -1827h209l-496 1827h-209z" />
<glyph unicode="]" horiz-adv-x="968" d="M59 29h256v1190h-153v102h-103v293h678v-103h103v-1880h-678v103h-103v295zM88 0v-238h621v1823h-621v-235h256v-1350h-256z" />
<glyph unicode="^" horiz-adv-x="694" d="M-227 1059l368 555h326l68 -103h34l365 -555h-371l-71 103h-31l-74 102l-143 -205h-369l68 103h-170zM-172 1087h299l174 248l174 -248h303l-327 498h-293z" />
<glyph unicode="_" horiz-adv-x="1425" d="M-29 -59h1360v-103h103v-389h-1360v102h-103v390zM0 -88v-332h1303v332h-1303z" />
<glyph unicode="`" horiz-adv-x="806" d="M-109 1575l439 49l43 -108l59 6l178 -449h-317l-78 103h-25zM-55 1552l260 -348h260l-154 389z" />
<glyph unicode="a" horiz-adv-x="1468" d="M18 541q0 123 38 232.5t107.5 191.5t165 129t210.5 47q109 0 185.5 -33t125.5 -66l12 74h441v-102h102v-1145h-459v68q-49 -35 -118.5 -64t-170.5 -29q-121 0 -228 55.5t-183 153.5q-102 78 -165 203t-63 285zM47 541q0 -125 42 -229.5t111.5 -179.5t162 -116t192.5 -41 q59 0 107.5 11.5t86 30t68.5 40t55 41.5v-98h402v1087h-387l-15 -96q-20 14 -52 36t-72.5 40t-93 31.5t-115.5 13.5q-109 0 -199 -45t-155.5 -123t-101.5 -182.5t-36 -220.5zM446 543q0 43 16.5 84t46.5 71.5t68.5 49t84.5 18.5q43 0 82.5 -17.5t69.5 -48t47.5 -71.5 t17.5 -86q0 -43 -17.5 -84t-46.5 -73t-68.5 -50.5t-84.5 -18.5q-47 0 -86 19.5t-68 50.5t-45.5 72t-16.5 84zM578 440q0 -45 18 -82q31 -12 66 -12q39 0 73.5 16.5t60 44t40 62.5t14.5 74t-16 78q-16 6 -34 10t-36 4q-39 0 -73 -16.5t-59.5 -43t-39.5 -61.5t-14 -74z" />
<glyph unicode="b" horiz-adv-x="1454" d="M49 -29v1643h465v-103h102v-393q35 10 75 16.5t91 6.5q125 0 230.5 -51.5t179.5 -149.5q102 -76 162.5 -203t60.5 -297q0 -129 -41 -238.5t-111.5 -189.5t-169 -124t-210.5 -44q-115 0 -184.5 27t-116.5 68l-11 -70h-419v102h-103zM78 0h366l15 100q25 -25 53.5 -47 t66 -39.5t87 -28t114.5 -10.5q106 0 198.5 42t160 118t106.5 180.5t39 227.5q0 131 -39 236.5t-107.5 179t-159.5 113.5t-196 40q-106 0 -173.5 -25.5t-123.5 -74.5v573h-407v-1585zM471 543q0 41 16.5 76.5t44 63.5t65.5 43t79 15t78 -15t64.5 -43t44 -63.5t16.5 -76.5 q0 -43 -16.5 -79t-44 -61.5t-64.5 -41t-78 -15.5q-84 0 -144.5 55.5t-60.5 141.5zM602 440q0 -31 8 -55q35 -10 66 -10q35 0 66.5 12t55 34.5t38 53.5t14.5 68q0 29 -10 55q-31 12 -62 12q-35 0 -66.5 -13t-56 -36.5t-39 -54.5t-14.5 -66z" />
<glyph unicode="c" horiz-adv-x="1257" d="M18 537q0 125 44 235.5t124 192.5t193 129t250 47q145 0 263 -59.5t206 -170.5q84 -70 147 -161l-371 -281q-16 35 -35.5 66.5t-43.5 52.5l-23 -17l-20 41q-20 4 -31 4q-68 0 -109 -48t-41 -124q0 -41 9 -67q10 -4 19 -4h19q51 0 87 36.5t63 94.5l377 -260l-15 -23 l117 -80q-84 -129 -215 -213t-311 -84q-160 0 -283 60.5t-200 163.5q-104 82 -162 203.5t-58 265.5zM47 537q0 -117 40 -218.5t114.5 -178.5t180 -121t236.5 -44q170 0 292 73t194 188l-324 225q-23 -51 -61.5 -84t-100.5 -33q-82 0 -130 57.5t-48 145.5t48.5 144.5 t129.5 56.5q70 0 107 -40t59 -92l320 242q-80 121 -200 187.5t-275 66.5q-131 0 -237.5 -45t-183.5 -124t-119 -183.5t-42 -222.5z" />
<glyph unicode="d" horiz-adv-x="1454" d="M18 543q0 135 44 244.5t119 188.5t172 122t206 43q92 0 150.5 -20.5t107.5 -53.5v547h463v-103h102v-1642h-411l-8 78q-55 -41 -127 -72t-172 -31q-129 0 -238 54.5t-182 152.5q-104 78 -165 205t-61 287zM47 543q0 -127 40 -230.5t109.5 -179.5t164 -117t200.5 -41 q113 0 184.5 38t135.5 91l14 -104h356v1585h-405v-571q-49 35 -118 66.5t-169 31.5q-102 0 -194.5 -41t-163 -115.5t-112.5 -179t-42 -233.5zM451 543q0 41 16 76.5t44 63.5t64.5 44t77.5 16t78 -15t65.5 -43t46 -64.5t17.5 -77.5q0 -43 -16.5 -79t-45 -62.5t-66.5 -42 t-79 -15.5q-84 0 -143 57.5t-59 141.5zM582 440q0 -27 10 -57q31 -10 61 -10q37 0 69 13t56.5 35.5t38.5 53.5t14 68q0 27 -10 57q-31 12 -65 12q-72 0 -123 -51t-51 -121z" />
<glyph unicode="e" horiz-adv-x="1349" d="M14 543q0 129 43 238.5t123 189.5t192 125t249 45q156 0 275.5 -55.5t197.5 -159.5q104 -78 162.5 -206t58.5 -294q0 -10 -3 -24.5t-7 -26.5q-4 -14 -9 -29h-284l172 -100q-2 -4 -4 -10q-4 -4 -7.5 -10.5t-7.5 -12.5l121 -70q-47 -84 -125 -149q-66 -57 -173 -103.5 t-263 -46.5q-166 0 -291 58.5t-203 163.5q-104 80 -160.5 201.5t-56.5 275.5zM43 543q0 -123 39 -227.5t113.5 -179.5t182 -118t245.5 -43q147 0 246.5 40t160.5 89q72 57 115 132l-291 170q-18 -31 -47 -54q-25 -20 -65 -36.5t-93 -16.5q-59 0 -100 20.5t-66.5 48t-37 58.5 t-11.5 51h740q2 8 4 17l4 16t2 18q0 135 -40 243t-114 183.5t-177 116.5t-232 41q-131 0 -238 -43t-182.5 -119t-116.5 -180t-41 -227zM434 635q0 31 10.5 61.5t33 55t58.5 41t87 16.5q47 0 79.5 -16.5t52 -41t29 -55t9.5 -61.5h-359zM569 340q33 -12 80 -12t84 18zM649 664 h113q0 4 -1 5t-1 5q-21 4 -35 4q-41 0 -76 -14z" />
<glyph unicode="f" horiz-adv-x="917" d="M18 733v383h107v158q0 100 26.5 166.5t77 104.5t124 53.5t169.5 15.5q53 0 101.5 -4t87.5 -8q45 -6 84 -13v-88q23 -4 41 -6t32 -4q16 -2 29 -4v-338q-18 6 -39 12q-16 4 -35.5 9.5t-36.5 5.5q-29 0 -55 -13.5t-37 -54.5h97v-102h102v-375h-201v-762h-465v102h-104 l-2 762h-103zM47 762h107v-762h407v762h201v317h-201v97q0 41 11.5 66.5t30 39.5t40 19.5t41.5 5.5q16 0 31.5 -2t25.5 -7q12 -4 25 -6v273q-33 4 -72 10q-35 4 -79 7t-93 3q-88 0 -156.5 -13t-115.5 -49t-71.5 -96.5t-24.5 -152.5v-187h-107v-325z" />
<glyph unicode="g" horiz-adv-x="1495" d="M18 557q0 127 42 233.5t115 184.5t171 122t209 44q55 0 109.5 -13.5t99.5 -29.5q53 -20 100 -43q2 16 5 33.5t5 27.5h445v-102h102v-955q0 -121 -27.5 -238.5t-101 -211.5t-203.5 -151.5t-333 -57.5q-86 0 -169 16.5t-154 39t-126 45t-86 36.5l23 51q-41 16 -73 28.5 t-52 23.5l153 335q47 -33 101 -57q45 -23 99 -39t110 -16q53 0 96 6h-14q-139 0 -247 54t-179 151q-104 78 -162 202.5t-58 280.5zM47 557q0 -121 37 -223.5t103.5 -176t161.5 -115.5t212 -42q66 0 120 15.5t96 37t69.5 43t40.5 35.5v-92q0 -104 -72 -154.5t-233 -50.5 q-59 0 -112.5 14.5t-94.5 32.5q-49 23 -90 49l-127 -276q27 -12 77 -32.5t114.5 -41t142 -35t161.5 -14.5q195 0 319 55.5t194.5 144.5t97 202.5t26.5 228.5v925h-391l-12 -88q-33 31 -82 56q-41 23 -103.5 40t-146.5 17q-104 0 -197.5 -42t-162 -115.5t-108.5 -175 t-40 -222.5zM449 553q0 43 17 80t46 64.5t69 43t85 15.5q113 0 171 -61.5t58 -141.5q0 -39 -13.5 -77t-42 -68.5t-71.5 -49t-102 -18.5q-88 0 -152.5 58.5t-64.5 154.5zM580 451q0 -37 12 -68q31 -14 74 -14q51 0 89 16t62.5 42t36.5 58.5t12 67.5q0 25 -10 55 q-39 16 -88 17q-78 0 -133 -50.5t-55 -123.5z" />
<glyph unicode="h" horiz-adv-x="1314" d="M49 -29v1643h465v-103h102v-421q45 23 101.5 37t122.5 14q119 0 186.5 -41t99.5 -103q45 -25 74 -59.5t45.5 -76.5t22.5 -88t6 -89v-815h-465v102h-102v633v22.5t-2 24.5q-29 -4 -46.5 -19.5t-26.5 -37t-12.5 -46t-3.5 -46.5v-633h-464v102h-103zM78 0h407v604 q0 27 4.5 58.5t16.5 58.5t37.5 44t68.5 17q39 0 63.5 -15t38 -41t17.5 -57.5t4 -64.5v-604h408v786q0 55 -11.5 113.5t-44 106t-92 77t-155.5 29.5q-135 0 -221.5 -52t-133.5 -114v639h-407v-1585z" />
<glyph unicode="i" horiz-adv-x="686" d="M49 -29v1145h103v88h-103v410h465v-103h102v-409h-102v-88h102v-1145h-464v102h-103zM78 0h407v1087h-407v-1087zM78 1233h407v352h-407v-352z" />
<glyph unicode="j" horiz-adv-x="782" d="M0 -27h47q55 0 76.5 27t21.5 111v1005h103v88h-103v410h465v-103h103v-409h-103v-88h103v-983q0 -106 -9.5 -214t-56.5 -194t-146.5 -139t-277.5 -53h-121v102h-102v440zM29 -55v-383h92q168 0 261 51t137 133t53.5 183.5t9.5 203.5v954h-408v-976q0 -51 -6 -83 t-21.5 -50.5t-39 -25.5t-60.5 -7h-18zM174 1233h408v352h-408v-352z" />
<glyph unicode="k" horiz-adv-x="1300" d="M49 -29v1643h465v-103h102v-516l76 121h582l-74 -102h176l-393 -555l436 -590h-573l-70 102h-33l-127 187v-289h-464v102h-103zM78 0h407v406l275 -406h502l-416 561l373 526h-510l-224 -358v856h-407v-1585z" />
<glyph unicode="l" horiz-adv-x="686" d="M49 -29v1643h465v-103h102v-1642h-464v102h-103zM78 0h407v1585h-407v-1585z" />
<glyph unicode="m" horiz-adv-x="1896" d="M49 -29v1145h430l8 -102q53 49 128 88t182 39q59 0 103 -12.5t77 -31t57.5 -43t44.5 -48.5q23 25 55.5 48t74.5 42.5t92.5 32t109.5 12.5q117 0 182.5 -40t98.5 -102q45 -25 73.5 -60.5t45 -78.5t21.5 -89t5 -89v-813h-465v102h-102v604v30t-2 32q-16 -8 -25.5 -25.5 t-13.5 -38t-5 -44t-1 -44.5v-616h-457v102h-102v664q-27 -12 -37.5 -42t-10.5 -65v-659h-464v102h-103zM78 0h407v631q0 57 22.5 99t86.5 42q37 0 56.5 -16.5t28.5 -42t11 -59t2 -68.5v-586h400v588q0 29 2 61.5t11 60t30.5 46t60.5 18.5t59.5 -19.5t29.5 -48t11 -63.5 t2 -68v-575h408v784q0 55 -10 113.5t-41 106t-89.5 78t-154.5 30.5q-66 0 -119 -14.5t-94 -37t-70.5 -49t-48.5 -50.5q-18 25 -41.5 51t-56.5 48.5t-78 37t-106 14.5q-63 0 -113.5 -14.5t-90.5 -38t-72 -53t-56 -58.5l-12 139h-375v-1087z" />
<glyph unicode="n" horiz-adv-x="1339" d="M49 -29v1145h451l6 -102h12q55 47 137 87t193 40q104 0 174 -39t106 -105q76 -41 112 -116.5t36 -173.5v-838h-469v102h-102v621v23.5t-3 27.5q-29 -2 -46 -17.5t-26 -37t-11.5 -47t-2.5 -47.5v-625h-464v102h-103zM78 0h407v596q0 29 4.5 60.5t16.5 57t36.5 43 t67.5 17.5t67.5 -18.5t37 -45t15.5 -59.5t3 -59v-592h412v809q0 131 -72 217t-225 86q-68 0 -123 -16.5t-100 -41t-80 -55t-60 -59.5l-12 147h-395v-1087z" />
<glyph unicode="o" horiz-adv-x="1402" d="M18 543q0 125 43 233.5t124 189.5t196 128t258 47q166 0 293 -63.5t209 -168.5q106 -84 164.5 -205.5t58.5 -263.5q0 -121 -43 -229.5t-123 -190t-196 -129t-261 -47.5q-166 0 -292.5 61.5t-206.5 166.5q-109 82 -166.5 204.5t-57.5 266.5zM47 543q0 -117 41 -220.5 t118 -180t186.5 -122t246.5 -45.5q139 0 248.5 45.5t186.5 123t118 181t41 218.5q0 117 -42 220t-120 181t-187.5 123t-244.5 45t-244.5 -45t-186.5 -122t-119 -180t-42 -222zM440 543q0 41 15.5 76.5t42 63.5t63.5 44t78 16q43 0 80 -16t63.5 -44t42 -64.5t15.5 -75.5 q0 -41 -15.5 -77t-43 -62.5t-63.5 -43t-79 -16.5q-41 0 -77 16.5t-63.5 43t-43 62.5t-15.5 77zM571 440q0 -27 11 -57q31 -10 57 -10q37 0 67.5 14t54 36.5t37 53.5t13.5 66q0 29 -10 59q-31 10 -60 10q-72 0 -121 -51t-49 -121z" />
<glyph unicode="p" horiz-adv-x="1466" d="M49 -467v1583h432l11 -72q47 37 118.5 67t180.5 30q127 0 232 -54.5t177 -148.5q104 -78 164.5 -204t60.5 -285q0 -129 -39.5 -240t-111.5 -191.5t-169 -128t-210 -47.5q-92 0 -161.5 24.5t-117.5 53.5v-489h-464v102h-103zM78 -438h407v516q18 -14 47 -32.5t68 -34 t88 -27t105 -11.5q106 0 198 44t160 122t105.5 183.5t37.5 228.5t-38.5 225.5t-106.5 177t-160 116.5t-198 42q-59 0 -109.5 -12.5t-90.5 -30.5t-71 -39.5t-49 -40.5l-14 98h-379v-1525zM481 537q0 43 17.5 80.5t46 65.5t65.5 44t78 16t78 -16t63.5 -45t42 -65.5t15.5 -79.5 q0 -86 -57.5 -139.5t-141.5 -53.5q-41 0 -78 14.5t-65.5 39t-46 60.5t-17.5 79zM612 434q0 -29 6 -49q33 -12 70 -12q72 0 121 46t49 118q0 35 -12 65q-31 10 -55 10q-72 0 -125.5 -51t-53.5 -127z" />
<glyph unicode="q" horiz-adv-x="1454" d="M18 545q0 125 39 233.5t111 189.5t172 127t223 46q104 0 176 -28t115 -58l10 61h418v-102h102v-1583h-464v102h-103v336q-35 -12 -72.5 -19.5t-82.5 -7.5q-129 0 -236 54.5t-180 150.5q-104 80 -166 209t-62 289zM47 545q0 -123 39 -228.5t108.5 -181.5t163 -119 t201.5 -43q102 0 170 33t117 78v-522h407v1525h-364l-15 -88q-18 16 -44.5 36t-64.5 37.5t-88.5 28.5t-113.5 11q-117 0 -212 -44t-162.5 -121t-104.5 -180t-37 -222zM455 543q0 41 16 77.5t44 64.5t64.5 44t77.5 16t78 -16t64.5 -44t44 -64.5t16.5 -77.5 q0 -84 -59.5 -141.5t-143.5 -57.5q-41 0 -77.5 15.5t-64.5 42t-44 63.5t-16 78zM586 440q0 -27 10 -57q31 -10 61 -10q72 0 123 49t51 121q0 31 -12 59q-29 12 -59 12q-72 0 -123 -51t-51 -123z" />
<glyph unicode="r" horiz-adv-x="1044" d="M49 -29v1145h436v-102h37q47 49 136.5 88t244.5 39v-109q45 6 103 6v-409q-35 0 -100.5 -5.5t-130 -34t-113 -91t-48.5 -176.5v-453h-462v102h-103zM78 0h405v424q0 125 48.5 193.5t113 100.5t130 37t99.5 5v352q-98 0 -165.5 -19.5t-111.5 -48t-68.5 -63.5t-37 -63.5 t-15.5 -48t-5 -19.5l-12 237h-381v-1087z" />
<glyph unicode="s" horiz-adv-x="1200" d="M-25 145l183 301q78 -51 151.5 -91t139.5 -58q-84 27 -150 71t-106 105q-72 49 -114 120t-42 169q0 94 39 165.5t106.5 120t158.5 73t194 24.5q111 0 207 -24.5t167 -53.5q84 -35 154 -76l-21 -39q29 -14 51.5 -24t39.5 -21q18 -10 32 -18l-168 -314l-36 25 q39 -35 67 -80q66 -43 109 -110.5t43 -169.5q0 -184 -136 -291t-374 -107q-88 0 -165 10.5t-147.5 34t-139 62.5t-140.5 94l12 23q-59 37 -115 79zM12 154q127 -100 256 -140.5t299 -40.5q223 0 352.5 99.5t129.5 269.5q0 86 -34 146.5t-89.5 101.5t-126 63.5t-142.5 34.5 q-98 16 -142 43t-44 57q0 16 17.5 29.5t58.5 13.5q31 0 71.5 -6t86 -19t92.5 -34.5t90 -50.5l139 260q-61 37 -139 68q-66 25 -156 46t-196 21q-96 0 -182.5 -22.5t-150 -67.5t-100 -111.5t-36.5 -152.5q0 -78 30.5 -137.5t83.5 -104.5t125 -73.5t154 -43.5q72 -8 110.5 -22 t55.5 -31q20 -18 20 -39q0 -29 -35 -42t-78 -13q-78 0 -173 43t-193 107z" />
<glyph unicode="t" horiz-adv-x="944" d="M18 733v383h97v340h467v-102h102v-238h98v-102h103v-383h-201v-262h98v-103h103v-397h-291q-74 0 -130 14.5t-96 37t-68 50t-44 56.5q-53 31 -81 71.5t-42 77.5q-16 43 -18 86v471h-97zM47 762h96v-500q6 -74 43 -131q33 -49 103.5 -90t202.5 -41h262v340h-117 q-53 0 -68.5 25.5t-15.5 68.5v328h201v325h-201v340h-410v-340h-96v-325z" />
<glyph unicode="u" horiz-adv-x="1335" d="M39 309v807h475v-102h102v-615v-27.5t2 -25.5q47 14 65.5 61.5t18.5 94.5v614h461v-102h103v-1145h-447l-8 96q-49 -43 -130 -82t-198 -39q-109 0 -180.5 39t-112.5 109q-78 43 -114.5 125t-36.5 192zM68 309q0 -150 75.5 -242t237.5 -92q72 0 128 16.5t99 40t74 50.5 t49 49l12 -131h392v1087h-404v-585q0 -31 -7 -63.5t-23.5 -60.5t-43 -45.5t-65.5 -17.5q-66 0 -86.5 51.5t-20.5 135.5v585h-417v-778z" />
<glyph unicode="v" horiz-adv-x="1409" d="M-47 1116h457l36 -102h66l166 -465l209 567h456l-43 -102h146l-469 -1149h-473l-41 102h-62zM-6 1087l426 -1091h436l444 1091h-393l-264 -712l-254 712h-395z" />
<glyph unicode="w" horiz-adv-x="1933" d="M-33 1116h426l31 -102h72l116 -389l138 491h327l27 -102h76l98 -375l145 477h420l-31 -102h134l-349 -1149h-467l-28 102h-74l-55 197l-80 -299h-471l-33 102h-70zM4 1087l336 -1091h428l139 520l144 -520h424l331 1091h-362l-209 -688l-180 688h-285l-192 -688l-205 688 h-369z" />
<glyph unicode="x" horiz-adv-x="1355" d="M-39 -29l387 572l-377 573h504l60 -102h43l61 -109q33 53 65.5 106.5t61.5 104.5h502l-70 -102h172l-377 -565l385 -580h-510l-61 102h-41l-72 119l-133 -221h-498l70 102h-172zM16 0h426l172 283l168 -283h439l-365 551l358 536h-432l-164 -272l-159 272h-432l356 -542z " />
<glyph unicode="y" horiz-adv-x="1409" d="M-39 1116h449l34 -102h68l166 -486q53 147 104.5 296t104.5 292h440l-41 -102h144l-637 -1583h-471l38 102h-141l176 467q-106 272 -216.5 558t-217.5 558zM2 1087l424 -1087l-166 -438h412l612 1525h-377l-264 -741l-254 741h-387z" />
<glyph unicode="z" horiz-adv-x="1277" d="M37 -29v408l371 260h-263v102h-102v375h1075v-102h103v-410l-359 -264h256v-102h103v-369h-1082v102h-102zM66 0h1024v311h-555l555 410v366h-1018v-317h569l-575 -405v-365z" />
<glyph unicode="{" horiz-adv-x="995" d="M49 465v399q53 2 96 25q37 18 68 58t31 114v203q0 131 51 209.5t126 119.5t159 54.5t147 13.5q23 0 45.5 -1t40.5 -3q23 -2 41 -2v-96q20 -2 38.5 -2.5t33.5 -2.5q16 -2 30 -2v-342q-16 2 -30 4t-28.5 3.5t-27.5 1.5q-20 0 -44.5 -3.5t-45 -13.5t-35 -28.5t-14.5 -49.5 v-268q0 -63 -15.5 -111.5t-38 -83t-49 -59t-46.5 -41.5q25 -14 50 -36.5t47.5 -56.5t37 -82t14.5 -112v-280q10 -2 18.5 -2h18.5q12 0 26.5 1t28.5 3t31 4v-111h16q12 0 26.5 1t29.5 4q14 2 30 4v-342q-18 -2 -41 -5q-18 -2 -40.5 -2h-45.5q-47 0 -106 6.5t-118.5 27 t-113 55t-90.5 94.5q-68 43 -112.5 119.5t-44.5 199.5v223q0 41 -13 72q-29 10 -55 14q-12 2 -24 2v76q-20 10 -38 14.5t-32 8.5q-16 4 -33 4zM78 494q53 -4 96 -27q37 -20 67.5 -65.5t30.5 -127.5v-223q0 -123 48.5 -196.5t119 -111.5t149.5 -50t138 -12h37.5t32.5 2 q16 0 28 2v282q-8 -2 -16 -2q-8 -2 -19.5 -2h-21.5q-25 0 -54.5 4t-55 17.5t-42 38t-16.5 63.5v291q0 90 -30.5 146.5t-65.5 86.5q-41 37 -94 54q0 2 29.5 16t65.5 47t65.5 89t29.5 142v269q0 39 16.5 63.5t42 37.5t55 17.5t54.5 4.5q10 0 21.5 -1t19.5 -1q8 -2 16 -2v282 q-12 0 -28 2q-14 0 -31.5 1t-38.5 1q-59 0 -138 -12t-149.5 -50t-119 -111t-48.5 -195v-203q0 -86 -30.5 -130t-67.5 -67q-43 -25 -96 -28v-342z" />
<glyph unicode="|" horiz-adv-x="802" d="M166 -428v2042h348v-103h102v-2041h-348v102h-102zM195 -399h290v1984h-290v-1984z" />
<glyph unicode="}" horiz-adv-x="995" d="M18 0q14 -2 31 -4q12 -2 27.5 -3t27.5 -1q20 0 45 3t45.5 13t35 28.5t14.5 49.5v297q0 63 16 111.5t40 82t49.5 56t45.5 37.5q-23 14 -49.5 38.5t-49 59.5t-37.5 82t-15 108v259q-10 2 -19.5 2h-17.5q-12 0 -27.5 -1t-27.5 -4q-16 -2 -31 -4v111h-17q-12 0 -27.5 -1 t-27.5 -3q-16 -2 -31 -4v342q16 0 39 2q18 2 41 3t47 1q47 0 105.5 -6t118 -26.5t114 -56.5t90.5 -93q68 -43 113 -119t45 -199v-203q0 -47 12 -77q16 -6 30.5 -9.5t25.5 -5.5q12 -2 24 -2v-76q18 -10 36 -14t34 -8t33 -4v-400q-55 -2 -99 -24q-37 -18 -66.5 -56t-29.5 -110 v-223q0 -133 -51 -212t-126 -120t-159 -54.5t-147 -13.5h-45.5t-40.5 2q-23 2 -41 5v96q-20 0 -39 1t-33 3q-16 2 -31 2v342zM47 -33v-282q12 -2 29 -2q14 -2 30.5 -2h38.5q59 0 138 12t150 50t119 111.5t48 196.5v223q0 82 29.5 127t66.5 66q43 23 99 27v342q-55 4 -99 28 q-37 23 -66.5 67t-29.5 130v203q0 123 -48 195.5t-119 110.5t-149.5 50t-138.5 12q-23 0 -39 -1t-30 -1q-16 -2 -29 -2v-282q8 0 16 2q8 0 18.5 1t22.5 1q25 0 54.5 -4.5t55.5 -17.5t42 -37.5t16 -63.5v-269q0 -86 30 -142t65.5 -89t65.5 -47t30 -16q-55 -16 -96 -54 q-35 -31 -65 -87t-30 -146v-291q0 -39 -16 -63.5t-42 -38t-55.5 -17.5t-54.5 -4h-22t-19 2q-8 0 -16 2z" />
<glyph unicode="~" horiz-adv-x="1558" d="M119 627q51 123 97 208t93 137t98.5 75.5t112.5 23.5q47 0 98.5 -23.5t100.5 -53t93 -53t79 -23.5q10 0 20.5 5t24.5 23.5t32.5 52t47.5 93.5l301 -134l-21 -49l123 -53q-51 -123 -97 -208t-93 -137t-98.5 -74.5t-110.5 -22.5q-45 0 -109.5 29.5t-124.5 62.5 q-45 23 -82.5 41t-56.5 18q-10 0 -20.5 -6t-24.5 -24.5t-32.5 -52t-47.5 -91.5l-301 133q4 12 9.5 24.5t11.5 22.5zM156 643l250 -111q27 53 46 86t34.5 50.5t28.5 22.5t30 5q25 0 72 -23.5t102 -52t108.5 -52t90.5 -23.5q55 0 101 20.5t89 68.5t84 124t88 186l-250 109 q-27 -55 -46 -88t-34.5 -49.5t-29 -21.5t-29.5 -5q-37 0 -86 23.5t-100.5 53t-99.5 53t-85 23.5q-55 0 -102 -20.5t-90 -68.5t-85 -123.5t-87 -186.5z" />
<glyph unicode="&#xa1;" horiz-adv-x="839" d="M74 -154l108 1076h226q-59 10 -106.5 44.5t-76.5 86.5q-59 35 -97 96t-38 135q0 55 20.5 103.5t56.5 84t84 56t103 20.5q74 0 134.5 -37.5t95.5 -97.5q61 -35 99 -95.5t38 -135.5q0 -47 -16.5 -91t-45 -79t-68.5 -58.5t-87 -31.5h33l10 -103h92l106 -1075h-569l10 102 h-112zM106 -125h506l-102 1018h-301zM119 1284q0 -47 18.5 -90t51 -76t74.5 -51t91 -18t92 18t75 51t50.5 76t18.5 90q0 49 -18.5 92t-51.5 75t-75 50.5t-91 18.5t-91 -18.5t-74.5 -50.5t-51 -75t-18.5 -92z" />
<glyph unicode="&#xa2;" horiz-adv-x="1298" d="M18 887q0 98 33 189t91.5 168t140.5 134.5t180 85.5v150h348v-103h102v-75q133 -59 224 -174q45 -35 80.5 -76t66.5 -88l-369 -279q-16 33 -37.5 62.5t-48.5 52.5l-16 -12l-18 32q-25 12 -50 13q-72 0 -123 -49.5t-51 -135.5q0 -31 9 -55q25 -8 59 -8q53 0 98 34.5 t72 94.5l373 -270l-13 -21l115 -82q-66 -104 -157 -176t-214 -100v-160h-348v102h-102v101q-129 61 -217 172q-106 86 -167 207.5t-61 265.5zM47 887q0 -102 31 -193.5t88 -165t139 -125t187 -73.5v-160h290v156q123 25 214 89t149 156l-324 234q-23 -53 -72 -84t-110 -31 q-82 0 -140.5 56.5t-58.5 138.5q0 98 58.5 155.5t144.5 57.5q66 0 113 -41t69 -92l320 241q-57 92 -148.5 154.5t-214.5 85.5v139h-290v-143q-100 -25 -182.5 -78t-140.5 -127t-90 -163t-32 -187z" />
<glyph unicode="&#xa3;" horiz-adv-x="1406" d="M18 -29v424q29 8 61 17.5t58.5 26t47 43t26.5 69.5h-90v102h-103v299h140q-2 45 -12.5 90t-10.5 99q0 104 36 191t103.5 149.5t164 97.5t218.5 35q156 0 255.5 -54.5t156.5 -136.5q57 -41 96 -96t62.5 -113.5t33 -117t9.5 -107.5h-426q-4 31 -8.5 57.5t-12.5 45.5h-82 q-4 20 -4 30q-20 -10 -31.5 -29.5t-11.5 -54.5q0 -41 13 -90h194v-102h103v-295h-234v-45q0 -41 -12.5 -80t-28.5 -74q41 4 54.5 26.5t27.5 74.5h424q0 -27 -1 -52.5t-3 -50.5h106q0 -90 -14 -177t-59 -154.5t-129 -108.5t-224 -41h-790v102h-103zM47 0h762q129 0 208 36 t121 96.5t55 136t13 155.5h-372q-6 -27 -13.5 -46.5t-18.5 -31.5t-31.5 -17t-53.5 -5h-221q39 31 71 71q27 35 49.5 88.5t22.5 124.5v74h233v238h-262q-20 66 -33.5 123t-13.5 98q0 68 33 93.5t74 25.5q29 0 46 -10.5t27.5 -29t14.5 -44t8 -56.5h373q0 63 -20.5 144.5 t-74 153t-146.5 119.5t-241 48q-115 0 -207 -32.5t-155.5 -91t-97 -140.5t-33.5 -180q0 -55 9 -111.5t20 -109.5h-146v-238h186l11 -90q0 -63 -18.5 -102t-47 -63t-63.5 -35t-68 -19v-373z" />
<glyph unicode="&#xa4;" horiz-adv-x="1351" d="M96 541q0 104 40 196t112 162l-146 217h230l67 -102h27q82 31 190 30q57 0 109.5 -10t99.5 -26q18 27 38 56.5t36 51.5h227l-69 -102h172l-142 -207q147 -143 148 -365q0 -109 -41 -206t-119 -168l135 -199h-225l-72 100q-45 -16 -92 -24t-102 -8t-103.5 8t-95.5 26 l-69 -102h-228l70 102h-172l135 197q-80 70 -120 166t-40 207zM125 541q0 -109 44 -205t126 -162l-119 -174h156l74 111q49 -20 100 -31.5t110 -11.5t108.5 11t96.5 27l76 -106h156l-119 174q84 66 127 163t43 208q0 109 -40 201t-118 159l125 182h-158l-79 -114 q-47 20 -101.5 31.5t-116.5 11.5q-123 0 -221 -47l-80 118h-157l129 -192q-78 -66 -120 -157t-42 -197zM451 541q0 68 47 117t118 49q72 0 118 -50t46 -116t-48 -113t-118 -47t-116.5 47t-46.5 113zM582 425q0 -7 2 -13q10 -2 30 -2q57 0 97.5 39t40.5 92q0 10 -4 30 q-16 4 -29 4q-59 0 -98 -40.5t-39 -96.5v-13z" />
<glyph unicode="&#xa5;" horiz-adv-x="1658" d="M-14 1581h495l56 -102h47l217 -402l254 504h491l-61 -102h164l-287 -488v-37h102v-225h-256l-4 -6h80v-102h102v-228h-278v-524h-432v102h-103v422h-208v103h-103v227h264l-4 6h-235v102h-103v226h135zM39 1552l334 -524h-160v-168h266l96 -166h-284v-170h311v-524h375 v524h278v170h-266l101 166h243v168h-145l309 524h-424l-293 -581l-315 581h-426z" />
<glyph unicode="&#xa6;" horiz-adv-x="802" d="M166 -426v948h348v-102h102v-948h-348v102h-102zM166 666v948h348v-103h102v-948h-348v103h-102zM195 -397h290v891h-290v-891zM195 694h290v891h-290v-891z" />
<glyph unicode="&#xa7;" horiz-adv-x="1161" d="M-45 131l182 299q80 -53 152 -84q-35 20 -67 49t-54 66q-66 41 -109 109.5t-43 172.5q0 78 28 142.5t71 111.5q-98 94 -99 250q0 96 39 171t106.5 126t158 78t194.5 27q61 0 131 -10.5t140.5 -30t139 -48t126.5 -65.5l-23 -39q70 -29 125 -63l-174 -312 q-16 10 -33.5 18.5t-34.5 16.5q61 -43 97 -96q66 -45 108.5 -112t42.5 -169q0 -78 -27.5 -143.5t-74.5 -114.5q47 -43 74.5 -103.5t27.5 -139.5q0 -98 -41 -173t-111.5 -125.5t-166 -77t-205.5 -26.5q-141 0 -293 48t-285 145l17 26q-63 35 -119 76zM-8 137 q117 -86 260 -128t280 -42q104 0 194.5 24.5t157 72t105.5 117t39 159.5q0 84 -31.5 143.5t-85.5 100.5q55 47 86 111.5t31 146.5q0 88 -33.5 148.5t-89 100t-126 65.5t-142.5 44q-66 16 -116 36.5t-50 51.5q0 16 17.5 28.5t56.5 12.5q61 0 148 -28.5t173 -77.5l146 262 q-51 33 -113.5 57.5t-128 42t-132.5 26.5t-124 9q-98 0 -183 -24.5t-148.5 -72.5t-100.5 -118t-37 -158q0 -80 28.5 -142.5t82.5 -105.5q-53 -47 -82 -109.5t-29 -146.5q0 -106 44 -170.5t106.5 -102.5t130 -53.5t112.5 -23.5q61 -10 94 -24.5t50 -26.5q18 -14 22 -31 q0 -51 -88 -51q-78 0 -175 33t-196 96zM293 860q4 25 30.5 34t61.5 9q47 0 94 -8t70 -16t59.5 -22.5t72.5 -34t62.5 -44t26.5 -51.5q0 -25 -28.5 -39t-71.5 -14t-79 6t-87 22q-119 37 -165 79t-46 79zM428 760q31 -14 84 -31q47 -14 82 -20.5t76 -6.5q43 0 61 13l-90 35 q-20 8 -64.5 15t-89.5 7q-20 0 -36.5 -2t-22.5 -10z" />
<glyph unicode="&#xa8;" horiz-adv-x="854" d="M-29 1176v335h336v-102h103v-336h-336v103h-103zM0 1204h279v279h-279v-279zM426 1176v335h334v-102h102v-336h-334v103h-102zM455 1204h276v279h-276v-279z" />
<glyph unicode="&#xa9;" horiz-adv-x="1470" d="M78 545q0 121 46 229.5t126 189t189.5 129t236.5 48.5q143 0 263 -61.5t202 -166.5q104 -84 166.5 -206.5t62.5 -264.5q0 -121 -46 -229.5t-126 -190t-188.5 -130t-235.5 -48.5q-145 0 -265 61.5t-202 166.5q-106 84 -167.5 206.5t-61.5 266.5zM106 545 q0 -117 44.5 -220.5t120 -181t179 -123t222.5 -45.5q121 0 224 46.5t180 124t120 181t43 218.5t-43 218t-119 181t-179 123t-222 45q-121 0 -224.5 -46t-180 -124t-121 -180.5t-44.5 -216.5zM233 543q0 92 34 173t93.5 142.5t140.5 97t175 35.5q92 0 172 -35.5t138 -96 t92 -141.5t34 -171q0 -92 -34 -173t-93 -142.5t-139 -96.5t-174 -35t-174 35t-138.5 95.5t-92.5 140.5t-34 172zM365 440q0 -68 19 -129t54 -112q100 -70 234 -70h35q-66 14 -118 51t-85 90q-109 68 -139 195v-25zM383 551q0 -63 21.5 -117.5t60.5 -94.5t94 -62.5t121 -22.5 q80 0 143.5 32.5t100.5 90.5l-131 98q-39 -63 -113 -63q-57 0 -97 42t-40 97q0 66 40 105.5t97 39.5q35 0 66.5 -13t50.5 -44l125 100q-39 53 -101.5 82t-140.5 29q-66 0 -120 -22.5t-93 -62.5t-61.5 -95.5t-22.5 -118.5zM674 449l6 -9q59 0 104 76l179 -133l-13 -16l66 -52 q33 51 50 108.5t17 123.5q0 68 -20.5 129t-56.5 112q-47 33 -101.5 51.5t-113.5 20.5q100 -35 170 -127l-7 -4q63 -39 109 -98l-172 -137q-23 39 -51.5 55t-57.5 16q-45 0 -76.5 -31.5t-31.5 -84.5z" />
<glyph unicode="&#xaa;" horiz-adv-x="970" d="M49 1118q0 72 33 121t84 78l-92 223q41 20 94 39q45 14 104.5 26.5t130.5 12.5q104 0 178 -24.5t121 -71.5q25 -25 46 -62q16 -10 30.5 -19t26.5 -22q47 -47 66.5 -108.5t19.5 -145.5v-368h-103v-84h103v-232h-737v103h-103v231h201q-53 31 -80 88q-55 27 -89 79t-34 136 zM78 1118q0 -109 63.5 -159t151.5 -50q72 0 123 28t92 69v-78h252v340q0 78 -18.5 135t-59.5 98q-45 41 -112.5 64.5t-166.5 23.5q-70 0 -123 -10t-92 -20q-45 -14 -77 -31l73 -180q25 12 56 22q27 8 59.5 15.5t71.5 7.5q61 0 95 -23.5t44 -64.5q-18 6 -41 14q-20 6 -49 11 t-64 5q-45 0 -94 -11t-90 -37.5t-67.5 -67.5t-26.5 -101zM80 612h680v174h-680v-174zM317 1135q0 41 30 61.5t71 20.5q16 0 32.5 -4.5t28.5 -8.5q14 -6 29 -10q0 -127 -113 -127q-41 0 -59.5 19.5t-18.5 48.5zM547 815h35v23q-10 -6 -17.5 -12.5t-17.5 -10.5z" />
<glyph unicode="&#xab;" horiz-adv-x="1433" d="M-33 711l307 405h457l-80 -102h144l77 102h445l-78 -102h180l-305 -408q35 -47 75 -99t80 -105.5t78.5 -105.5t73.5 -97h-446l-78 102h-25l-290 385l-62 -80q72 -94 152 -204.5t149 -202.5h-448l-76 102h-27zM2 711l283 -381h379l-283 381l291 376h-385zM598 711 l287 -381h379l-287 381l283 376h-375z" />
<glyph unicode="&#xac;" horiz-adv-x="1585" d="M127 596v401h1208v-102h103v-803h-400v103h-102v299h-707v102h-102zM156 625h809v-402h342v746h-1151v-344z" />
<glyph unicode="&#xad;" horiz-adv-x="880" d="M49 342v401h670v-102h102v-401h-669v102h-103zM78 371h612v344h-612v-344z" />
<glyph unicode="&#xae;" horiz-adv-x="1439" d="M41 1061q0 121 46 229.5t126 189.5t189.5 129t236.5 48q143 0 263 -61.5t202 -165.5q104 -84 166.5 -207t62.5 -265q0 -121 -46 -229t-126 -190t-188.5 -130.5t-235.5 -48.5q-145 0 -265 61.5t-202 166.5q-106 84 -167.5 207t-61.5 266zM70 1061q0 -117 44 -220.5 t119.5 -181t179 -122.5t222.5 -45q121 0 224.5 46t180 123.5t119.5 181t43 218.5t-43 218t-118.5 181t-179 123t-222.5 45q-121 0 -224.5 -46t-180 -124t-120.5 -180t-44 -217zM197 1059q0 92 33.5 173t93 142.5t140.5 97t175 35.5q92 0 172 -35.5t138.5 -96t92 -141.5 t33.5 -171q0 -92 -33.5 -173t-93 -142.5t-139.5 -96.5t-174 -35t-174 35t-138.5 95.5t-92 140.5t-33.5 172zM328 956q0 -106 51 -202v405q-51 -97 -51 -203zM385 741l16 -26q41 -27 80 -41v67h-96zM408 770h161v219h62l102 -219h182l-127 244q27 6 50 26q18 16 34.5 48 t16.5 86q0 70 -47 123t-133 53h-301v-580zM567 1090v139h76q29 0 50.5 -16.5t21.5 -49.5q0 -49 -30 -61t-64 -12h-54zM700 649q27 4 51.5 11.5t47.5 17.5l-31 63h-53l-15 29v-121zM737 1376q59 -8 100.5 -39.5t61.5 -79.5q59 -25 90 -76t31 -110q0 -41 -14.5 -73.5 t-30.5 -55.5q-20 -27 -45 -47l39 -78q37 53 57.5 114.5t20.5 131.5q0 68 -20.5 129t-57.5 113q-47 35 -106.5 53t-125.5 18z" />
<glyph unicode="&#xaf;" horiz-adv-x="835" d="M-29 1176v268h770v-103h103v-268h-770v103h-103zM0 1204h713v211h-713v-211z" />
<glyph unicode="&#xb0;" horiz-adv-x="958" d="M18 1229q0 80 30 149.5t82 121.5t122 83t149 31q98 0 181.5 -46t136.5 -124q78 -53 124 -136t46 -182q0 -80 -30 -150.5t-82 -122.5t-120.5 -82t-148.5 -30q-100 0 -184 46.5t-138 123.5q-76 53 -122 135t-46 183zM47 1229q0 -74 28.5 -138.5t78 -113.5t114 -77 t138.5 -28t137 28t111 77t76 113.5t28 138.5t-28 138.5t-77 113.5t-113.5 76.5t-138.5 27.5t-138 -28.5t-112.5 -76.5t-76 -112.5t-27.5 -138.5zM276 1231q0 51 37 88t88 37q53 0 90 -37t37 -88q0 -53 -37.5 -90t-91.5 -37q-51 0 -87 37t-36 90zM408 1133q37 4 62.5 29.5 t29.5 62.5q-37 -2 -63.5 -29.5t-28.5 -62.5z" />
<glyph unicode="&#xb1;" horiz-adv-x="1634" d="M127 113h1257v-103h103v-401h-1258v102h-102v402zM127 592v401h401v373h455v-102h102v-271h299v-102h103v-402h-402v-370h-454v102h-103v268h-299v103h-102zM156 84v-344h1200v344h-1200zM156 621h401v-371h397v371h402v344h-402v372h-397v-372h-401v-344z" />
<glyph unicode="&#xb2;" horiz-adv-x="858" d="M-25 1710q35 63 88 117q45 45 115 82t170 37q94 0 182 -42t136 -120q63 -41 103 -103.5t40 -148.5q0 -59 -21.5 -105.5t-57.5 -85t-79 -70.5t-86 -61h160v-102h102v-258h-696l-29 22q-4 20 -7 39t-3 41h-63l-29 23q-6 29 -8 55.5t-2 54.5q0 82 24.5 144.5t63.5 109.5 t86 83t92 65l-178 121l12 24zM12 1720l174 -116q14 31 37 53q18 20 45 37.5t62 17.5q41 0 71.5 -25.5t30.5 -64.5t-30.5 -68.5t-76.5 -59.5t-99.5 -63.5t-99.5 -80.5t-77 -111.5t-31 -153.5q0 -27 2.5 -51t8.5 -53h667v201h-413q0 31 29.5 58.5t73.5 57t95 62.5t95.5 73 t73 89t28.5 112q0 70 -28.5 122t-76 88t-105.5 54.5t-120 18.5q-92 0 -155.5 -31t-104.5 -67q-47 -43 -76 -99z" />
<glyph unicode="&#xb3;" horiz-adv-x="872" d="M-2 1087l139 230q31 -29 66 -51q29 -20 64.5 -36t74.5 -16q41 0 66 13h-91l-47 102h-55l-68 150l80 84h-82v102h-102v258h664v-102h102v-187l-143 -149q31 -29 49 -62q63 -37 98 -94t35 -139q0 -68 -23.5 -131.5t-71.5 -113.5t-121 -80.5t-169 -30.5q-86 0 -152.5 23.5 t-113.5 51.5q-53 33 -97 76l11 16q-29 16 -49.5 31t-34.5 27q-16 14 -29 28zM33 1090q33 -37 82 -64q41 -23 102.5 -42t142.5 -19q90 0 157 27.5t112 73.5t66.5 105.5t21.5 120.5q0 102 -62.5 164t-171.5 86l195 207v145h-606v-200h229l98 6l-217 -227l51 -115h68 q78 0 128 -10.5t50 -65.5q0 -41 -35.5 -68.5t-101.5 -27.5q-41 0 -78 13t-63 30q-33 18 -58 43z" />
<glyph unicode="&#xb4;" horiz-adv-x="806" d="M82 1176l180 448l438 -49l-63 -84l166 -18l-303 -400h-316l41 103h-143zM125 1204h260l262 348l-366 41z" />
<glyph unicode="&#xb5;" horiz-adv-x="1335" d="M39 -467v1583h475v-102h102v-615v-27.5t2 -25.5q47 14 65.5 61.5t18.5 94.5v614h461v-102h103v-1145h-447l-8 94q-49 -47 -128 -87t-177 -40h-14v-405h-351v102h-102zM68 -438h292v409q10 -4 21.5 -4h21.5q55 0 107.5 17.5t95.5 42t75 53.5t50 51l12 -131h392v1087h-404 v-585q0 -31 -7 -63.5t-23.5 -60.5t-43 -45.5t-65.5 -17.5q-66 0 -86.5 51.5t-20.5 135.5v585h-417v-1525z" />
<glyph unicode="&#xb6;" horiz-adv-x="2056" d="M154 995q0 129 49 242t133 197t196.5 132t241.5 48h969v-103h102v-2082h-430v102h-102v1548h-31v-1650h-432v102h-102v754q-109 23 -200 80t-157 141q-111 86 -174 213t-63 276zM182 995q0 -123 47 -230.5t128 -187t188.5 -127t230.5 -47.5v-843h375v1650h190v-1650h373 v2025h-940q-123 0 -230.5 -46t-187.5 -126t-127 -187.5t-47 -230.5z" />
<glyph unicode="&#xb7;" horiz-adv-x="1429" d="M383 541q0 57 21.5 107t58.5 87t87 58.5t107 21.5q76 0 137.5 -38t96.5 -99q63 -35 101 -98.5t38 -141.5q0 -57 -21.5 -107t-58.5 -87t-87 -58.5t-107 -21.5q-78 0 -139.5 38t-96.5 99q-61 35 -99 98.5t-38 141.5zM412 541q0 -51 18.5 -95.5t51 -78t76.5 -53t95 -19.5 t95.5 19.5t78 52t53 77.5t19.5 97q0 51 -18.5 95t-51 78t-76.5 53t-96 19q-51 0 -96 -19t-77.5 -53t-52 -78t-19.5 -95z" />
<glyph unicode="&#xb8;" horiz-adv-x="806" d="M10 -211q35 -18 93.5 -43t123.5 -25q16 0 30.5 1.5t25.5 3.5l-56 47l25 43h-55l-72 59l96 166h223l-71 -102h174l-31 -41q37 -16 65.5 -41t41.5 -64q47 -20 78.5 -58t31.5 -100q0 -100 -86 -167.5t-239 -67.5q-74 0 -155 17.5t-140 39.5v72q-61 16 -103 31v229zM39 -258 v-162q51 -18 122.5 -33.5t143.5 -15.5q141 0 219 59.5t78 147.5q0 55 -29.5 87t-73.5 49t-94.5 22.5t-89.5 7.5l74 108h-151l-76 -131l45 -37h20q18 0 42 -3t46.5 -10t38 -19.5t15.5 -32.5q0 -12 -2 -26.5t-15.5 -28t-42 -22.5t-82.5 -9q-72 0 -116.5 17.5t-71.5 31.5z" />
<glyph unicode="&#xb9;" horiz-adv-x="671" d="M-29 1833l258 90h205v-102h103v-715h96v-258h-486v102h-102v258h92v275l-33 129l-69 -27zM6 1815l49 -193l111 41v-483h-92v-201h428v201h-96v714h-173z" />
<glyph unicode="&#xba;" horiz-adv-x="976" d="M59 1247q0 74 28 141.5t79 117.5t120.5 80t153.5 30q111 0 191 -45t127 -117q78 -49 120 -130t42 -179q0 -104 -52.5 -193.5t-150.5 -136.5h88v-102h102v-232h-737v103h-102v231h294q-88 41 -143 125q-78 49 -119 129t-41 178zM88 1247q0 -72 24.5 -133t70.5 -106 t110.5 -72t146.5 -27t146.5 28t109.5 75t68.5 107.5t23.5 127.5q0 70 -23.5 131.5t-68.5 107.5t-109.5 73.5t-146.5 27.5q-78 0 -142.5 -27.5t-111.5 -73.5t-72.5 -108.5t-25.5 -130.5zM96 612h680v174h-680v-174zM319 1247q0 47 35 82t86 35t83 -35t32 -82t-35 -80.5 t-84 -33.5q-47 0 -82 33.5t-35 80.5zM453 1161q29 4 48 23.5t23 46.5q-29 -4 -48 -23.5t-23 -46.5z" />
<glyph unicode="&#xbb;" horiz-adv-x="1433" d="M-8 301l307 408l-305 407h444l78 -102h25l293 -385l61 82l-315 405h456l78 -102h25l307 -406l-303 -409h-449l76 102h-152l-75 -102h-449l76 102h-178zM47 330h379l287 381l-287 376h-375l283 -376zM639 1087l291 -376l-283 -381h379l283 381l-285 376h-385z" />
<glyph unicode="&#xbc;" horiz-adv-x="1794" d="M12 1524l258 90h207v-103h103v-714h94v-11l561 828h262l-70 -103h172l-393 -577h314v-103h104v-514h102v-245h-104v-219h-289v102h-102v117h-334v102h-102v152l-312 -457h-260l70 102h-172l385 568h-318v102h-102v258h92v272l-33 129l-69 -26zM47 1505l49 -194l111 41 v-482h-92v-200h428v200h-94v715h-175zM176 0h189l1077 1585h-191zM823 203h437v-219h231v219h104v188h-104v514h-363l-305 -543v-159zM1061 391l176 318v-318h-176z" />
<glyph unicode="&#xbd;" horiz-adv-x="1794" d="M12 1524l258 90h207v-103h103v-714h75l555 817h260l-69 -103h172l-373 -550q10 2 21.5 3t23.5 1q94 0 182.5 -42t135.5 -120q63 -41 103 -103.5t40 -148.5q0 -59 -21.5 -105.5t-57.5 -85t-79 -70.5t-86 -61h160v-102h102v-258h-696l-29 22q-10 45 -10 80h-63l-29 23 q-6 29 -8 55.5t-2 54.5q0 82 24.5 144.5t63.5 110t86 83t92 64.5l-178 121l-516 -758h-260l69 102h-172l385 568h-293v102h-102v258h92v272l-33 129l-69 -26zM47 1505l49 -194l111 41v-482h-92v-200h428v200h-94v715h-175zM152 0h188l1075 1585h-188zM909 739l174 -116 q14 31 37 53q18 20 45 37.5t62 17.5q41 0 71.5 -25.5t30.5 -64.5q0 -37 -30.5 -67.5t-76.5 -60.5t-99.5 -63.5t-99.5 -80.5t-77 -111.5t-31 -153.5q0 -27 2.5 -51t8.5 -53h667v201h-413q0 31 29.5 58.5t73.5 57t95.5 62.5t95.5 73t72.5 89t28.5 112q0 70 -28.5 122t-76 88 t-105.5 54.5t-120 18.5q-92 0 -155.5 -31t-104.5 -67q-47 -43 -76 -99z" />
<glyph unicode="&#xbe;" horiz-adv-x="1863" d="M8 784l148 222q29 -31 63 -54q29 -20 64.5 -35.5t76.5 -15.5q82 0 103 53q-10 2 -22.5 3t-22.5 1h-84l-70 103h-33l-69 104l82 88h-84v103h-103v260h666v-103h102v-186l-143 -153q31 -31 47 -62q51 -29 85 -73t44 -105l461 680h260l-70 -103h172l-393 -577h299v-103h105 v-514h102v-245h-104v-219h-289v102h-103v117h-333v102h-103v129l-295 -434h-260l70 102h-172l383 566q-53 -12 -113 -13q-86 0 -153.5 24.5t-114.5 53.5q-55 35 -96 80l8 14q-29 16 -48.5 31.5t-33.5 28.5q-16 14 -29 28zM45 786q35 -37 84 -65q41 -25 102.5 -45.5 t141.5 -20.5q92 0 158.5 28t111.5 74t66.5 104.5t21.5 117.5q0 111 -63.5 170t-167.5 82l194 209v147h-608v-203h322l-209 -221l49 -73h67q74 0 127.5 -31t53.5 -84q0 -45 -38 -74t-98 -29q-45 0 -81.5 13.5t-63.5 29.5q-31 18 -55 43zM260 0h189l1075 1585h-189zM891 203 h436v-219h232v219h104v188h-104v514h-363l-305 -543v-159zM1128 391l177 318v-318h-177z" />
<glyph unicode="&#xbf;" horiz-adv-x="1306" d="M33 326q0 123 39 210t97 144t128 89t133 42l45 111h209q-100 33 -147 120q-61 35 -98.5 95.5t-37.5 136.5q0 55 20.5 102t55.5 83t82.5 56.5t102.5 20.5q74 0 134 -38t95 -97q59 -35 97 -95.5t38 -134.5q0 -90 -51 -157.5t-131 -91.5h28v-103h103v-403l-62 -51 q-39 0 -73.5 -3.5t-65.5 -7.5h432q0 -27 -2 -52.5t-6 -49.5h111q0 -100 -35 -201.5t-105.5 -184.5t-181 -135.5t-260.5 -52.5q-158 0 -287 57.5t-207 164.5q-94 72 -147 178t-53 248zM61 326q0 -121 43 -217.5t119 -163t178.5 -101t223.5 -34.5q143 0 247.5 47t172 120.5 t100.5 166t33 182.5h-392q0 -23 -9 -51.5t-27.5 -55t-48 -45t-72.5 -18.5q-72 0 -113 46t-41 111q0 51 24.5 86t68.5 56.5t103.5 31t129.5 9.5l43 36v361h-350l-43 -109q-59 -8 -127 -35.5t-126.5 -82t-97.5 -138.5t-39 -202zM430 1274q0 -49 18.5 -91t49 -74t72.5 -50.5 t92 -18.5q49 0 91 18.5t73.5 50.5t50 74t18.5 91t-18.5 91t-50 73.5t-73.5 50t-91 18.5t-91.5 -18.5t-73 -50t-49 -73.5t-18.5 -91zM606 211q0 -16 2 -25q7 -2 21 -2q33 0 57.5 17.5t39.5 44t22.5 54.5t9.5 50q-70 -14 -111 -48t-41 -91z" />
<glyph unicode="&#xc0;" d="M-39 -29l547 1643h209l-45 59h-25l-299 400l438 49l43 -109l60 6l178 -448h-16l18 -60h70l549 -1642h-529l-31 102h-71l-31 105h-397q-14 -49 -31.5 -104.5t-30.5 -102.5h-504l33 102h-135zM0 0h442l60 207h518l59 -207h467l-530 1585h-488zM401 2050l261 -348h260 l-154 389zM602 539l160 567l168 -567h-328zM770 567h123l-64 211z" />
<glyph unicode="&#xc1;" d="M-39 -29l547 1643h194l25 59h-143l180 449l438 -49l-63 -84l166 -19l-269 -356l33 -103h70l549 -1642h-529l-31 102h-71l-31 105h-397q-14 -49 -31.5 -104.5t-30.5 -102.5h-504l33 102h-135zM0 0h442l60 207h518l59 -207h467l-530 1585h-488zM602 539l160 567l168 -567 h-328zM627 1702h260l262 348l-367 41zM770 567h123l-64 211z" />
<glyph unicode="&#xc2;" d="M-39 -29l533 1600h-56l70 102h-172l278 404h308l69 -103h33l272 -403h-245l18 -60h70l549 -1642h-529l-31 102h-71l-31 105h-397q-14 -49 -31.5 -104.5t-30.5 -102.5h-504l33 102h-135zM0 0h442l60 207h518l59 -207h467l-530 1585h-488zM389 1702h205l174 164l158 -164 h213l-234 346h-276zM602 539l160 567l168 -567h-328zM754 1614h219l-107 106zM770 567h123l-64 211z" />
<glyph unicode="&#xc3;" d="M-39 -29l535 1606l-78 10v90l-103 13v57q0 150 74 226.5t193 76.5q35 0 79 -14.5t87 -31.5t79.5 -31.5t57.5 -14.5q39 0 55 18.5t31 67.5l233 -27q0 -12 2 -22q0 -10 1 -22.5t1 -22.5q0 -6 -1 -12.5t-1 -12.5l101 -10q0 -12 2 -23q0 -10 1 -22t1 -23q0 -74 -20.5 -128 t-55.5 -90t-82 -53t-98 -17l14 -48h70l549 -1642h-529l-31 102h-71l-31 105h-397q-14 -49 -31.5 -104.5t-30.5 -102.5h-504l33 102h-135zM0 0h442l60 207h518l59 -207h467l-530 1585h-488zM344 1716l188 -22q14 51 35 69.5t70 18.5q35 0 69.5 -14.5t73.5 -32t81 -31.5 t91 -14q92 0 160 63.5t68 196.5q0 8 -1 15t-1 13v13l-187 22q-14 -47 -34.5 -65.5t-71.5 -18.5q-33 0 -70 14.5t-76 32t-78.5 31.5t-78.5 14q-106 0 -172 -69.5t-66 -204.5v-31zM602 539l160 567l168 -567h-328zM676 1614h176q-31 12 -60.5 24.5t-52.5 12.5q-25 0 -39 -8.5 t-24 -28.5zM770 567h123l-64 211z" />
<glyph unicode="&#xc4;" d="M-39 -29l533 1600h-21v102h-102v336h336v-102h102v-293h119v59h-103v336h334v-102h103v-336h-211l18 -60h70l549 -1642h-529l-31 102h-71l-31 105h-397q-14 -49 -31.5 -104.5t-30.5 -102.5h-504l33 102h-135zM0 0h442l60 207h518l59 -207h467l-530 1585h-488zM399 1702 h279v278h-279v-278zM602 539l160 567l168 -567h-328zM770 567h123l-64 211zM854 1702h276v278h-276v-278z" />
<glyph unicode="&#xc5;" d="M-39 -29l543 1631q-16 45 -17 98q0 57 22.5 109.5t60.5 92.5t90.5 62.5t111.5 22.5q78 0 142.5 -39t101.5 -103q66 -39 104.5 -104.5t38.5 -143.5q0 -51 -18 -96l547 -1632h-529l-31 102h-71l-31 105h-397q-14 -49 -31.5 -104.5t-30.5 -102.5h-504l33 102h-135zM0 0h442 l60 207h518l59 -207h467l-530 1585h-17q29 53 29 115q0 53 -20.5 100t-55 82t-81 55.5t-99.5 20.5t-99 -20.5t-81 -56.5t-55.5 -83t-20.5 -98q0 -57 27 -115h-15zM602 539l160 567l168 -567h-328zM657 1698q0 47 33 79.5t80 32.5t81 -32.5t34 -79.5t-34 -80t-81 -33t-80 33 t-33 80zM770 567h123l-64 211zM791 1616q23 4 40 21.5t23 39.5q-23 -6 -40 -22t-23 -39z" />
<glyph unicode="&#xc6;" horiz-adv-x="2045" d="M-37 -29l547 1643h1352v-103h102v-387h-696q10 -31 19 -59.5t20 -56.5h436v-103h102v-418h-362l39 -118h360v-103h103v-397h-822l-30 102h-72l-31 105h-399q-14 -49 -31.5 -104.5t-30.5 -102.5h-503l32 102h-135zM2 0h442l60 207h520l59 -207h770v340h-419l-93 278h373 v361h-495l-91 276h705v330h-1303zM604 539l162 567l166 -567h-328zM772 567h123l-64 209z" />
<glyph unicode="&#xc7;" horiz-adv-x="1724" d="M0 793q0 182 65.5 339.5t180 274.5t273.5 183.5t347 66.5q205 0 382 -81t304 -228q76 -68 136 -144l-400 -311q-20 33 -45.5 58.5t-60.5 47.5q-49 33 -104.5 48.5t-108.5 15.5q-76 0 -141.5 -27.5t-114.5 -77t-77 -118t-28 -150.5q0 -117 64 -209q88 -59 194 -59 q88 0 170 52t135 138l420 -301l-14 -20l117 -82q-92 -141 -231.5 -235.5t-305.5 -129.5q20 -25 29 -47q47 -20 78.5 -58t31.5 -104q0 -100 -86 -167.5t-239 -67.5q-74 0 -155 17.5t-140 39.5v72q-61 16 -103 31v229q35 -18 93.5 -43t124.5 -25q16 0 30.5 1.5t24.5 3.5 l-55 47l24 43h-55l-62 51q-123 35 -224 100.5t-177 157.5q-141 117 -219 287t-78 381zM29 793q0 -170 54 -315.5t151.5 -254t234.5 -177.5t303 -83l-47 -82l45 -37h21q18 0 41.5 -3t46 -10t38 -19.5t15.5 -32.5q0 -12 -2 -26.5t-15.5 -28t-42 -22.5t-81.5 -9 q-72 0 -117 17.5t-72 31.5v-162q51 -18 123 -33.5t143 -15.5q141 0 219 59.5t78 147.5q0 55 -29.5 87t-73.5 49t-94 22.5t-89 7.5l36 55q205 10 370 101.5t267 244.5l-372 266q-51 -80 -134 -129t-180 -49q-80 0 -151.5 32t-123.5 87t-83 128t-31 153q0 88 31 162.5t83 127 t122.5 82t152.5 29.5q94 0 185.5 -38t142.5 -118l352 275q-113 152 -291 233.5t-389 81.5q-182 0 -334.5 -64.5t-265 -177t-175 -265t-62.5 -328.5z" />
<glyph unicode="&#xc8;" horiz-adv-x="1533" d="M49 -29v1643h635l-45 59h-25l-299 400l439 49l43 -109l59 6l160 -405h364v-103h103v-397h-828v-106h529v-103h102v-399h-631v-137h738v-103h102v-397h-1343v102h-103zM78 0h1286v340h-840v297h631v342h-631v266h828v340h-1274v-1585zM369 2050l260 -348h260l-154 389z " />
<glyph unicode="&#xc9;" horiz-adv-x="1533" d="M49 -29v1643h512l25 59h-144l181 449l438 -49l-64 -84l166 -19l-270 -356h487v-103h103v-397h-828v-106h529v-103h102v-399h-631v-137h738v-103h102v-397h-1343v102h-103zM78 0h1286v340h-840v297h631v342h-631v266h828v340h-1274v-1585zM485 1702h260l263 348l-367 41z " />
<glyph unicode="&#xca;" horiz-adv-x="1533" d="M49 -29v1643h383l41 59h-172l279 404h307l69 -103h33l244 -360h147v-103h103v-397h-828v-106h529v-103h102v-399h-631v-137h738v-103h102v-397h-1343v102h-103zM78 0h1286v340h-840v297h631v342h-631v266h828v340h-1274v-1585zM354 1702h205l174 164l158 -164h213 l-234 346h-276zM719 1614h219l-107 106z" />
<glyph unicode="&#xcb;" horiz-adv-x="1533" d="M49 -29v1643h387v59h-102v336h336v-102h102v-293h119v59h-103v336h334v-102h103v-293h155v-103h103v-397h-828v-106h529v-103h102v-399h-631v-137h738v-103h102v-397h-1343v102h-103zM78 0h1286v340h-840v297h631v342h-631v266h828v340h-1274v-1585zM362 1702h279v278 h-279v-278zM817 1702h277v278h-277v-278z" />
<glyph unicode="&#xcc;" horiz-adv-x="720" d="M-53 2073l438 49l43 -109l59 6l179 -448h-111v-60h102v-1642h-510v102h-102v1643h270l-45 59h-24zM0 2050l260 -348h260l-153 389zM74 0h452v1585h-452v-1585z" />
<glyph unicode="&#xcd;" horiz-adv-x="720" d="M39 1673l180 449l438 -49l-63 -84l166 -19l-271 -356h66v-103h102v-1642h-510v102h-102v1643h113l24 59h-143zM74 0h452v1585h-452v-1585zM82 1702h260l262 348l-366 41z" />
<glyph unicode="&#xce;" horiz-adv-x="720" d="M-129 1673l279 404h307l69 -103h33l272 -403h-276v-60h102v-1642h-510v102h-102v1600h-72l70 102h-172zM-76 1702h205l174 164l158 -164h213l-234 346h-276zM74 0h452v1585h-452v-1585zM289 1614h219l-107 106z" />
<glyph unicode="&#xcf;" horiz-adv-x="720" d="M-94 1673v336h336v-102h102v-293h119v59h-103v336h334v-102h103v-336h-242v-60h102v-1642h-510v102h-102v1600h-37v102h-102zM-66 1702h279v278h-279v-278zM74 0h452v1585h-452v-1585zM389 1702h277v278h-277v-278z" />
<glyph unicode="&#xd0;" horiz-adv-x="1677" d="M49 -29v1643h543q117 0 230.5 -13.5t217 -47t191.5 -89t153 -139.5q117 -92 185.5 -240.5t68.5 -373.5q0 -182 -45 -315.5t-122.5 -226.5t-180 -151.5t-215 -91t-231.5 -45t-228 -12.5h-464v102h-103zM78 0h436q106 0 221 11.5t225.5 43t210 89t174 147.5t118.5 218 t44 304q0 233 -77.5 384t-205.5 237t-293 118.5t-339 32.5h-514v-1585zM524 340v289h215v348h-215v280q125 -2 223.5 -27.5t168 -79.5t106.5 -139t37 -208q0 -104 -29 -189.5t-88 -146.5t-151.5 -94t-219.5 -33h-47zM655 373q195 23 285 136.5t90 293.5q0 147 -59 241 q-59 39 -138 58.5t-178 23.5v-120h113v-103h102v-405h-215v-125z" />
<glyph unicode="&#xd1;" d="M49 -29v1643h381v55l-102 12v58q0 150 73.5 226.5t192.5 76.5q43 0 85 -14.5t82 -32t74.5 -31.5t61.5 -14q39 0 55.5 18.5t30.5 67.5l234 -27q0 -12 2 -22q0 -10 1 -22.5t1 -22.5q0 -6 -1 -12.5t-1 -12.5l100 -10q0 -12 2 -23q0 -10 1 -22.5t1 -22.5q0 -78 -22.5 -134 t-61.5 -91h258v-103h102v-1642h-434l-65 102h-37l-408 650v-752h-503v102h-103zM78 0h446v885l555 -885h389v1585h-440v-790l-479 790h-471v-1585zM356 1708l189 -22q14 51 34.5 69.5t69.5 18.5q35 0 70 -14.5t73.5 -32t81 -32t91.5 -14.5q92 0 159.5 63.5t67.5 197.5 q0 8 -1 15t-1 13v12l-186 23q-14 -47 -35 -65.5t-72 -18.5q-33 0 -69.5 14.5t-75.5 32t-79 31.5t-79 14q-106 0 -172 -69.5t-66 -204.5v-31zM598 1561l29 -50h41l331 -548v596q-33 23 -71 40q-35 16 -80 29.5t-96 13.5q-35 0 -51.5 -18t-30.5 -72z" />
<glyph unicode="&#xd2;" horiz-adv-x="1882" d="M18 799q0 168 55.5 314.5t156 259t237.5 185t303 91.5l-18 24h-25l-299 400l438 49l43 -109l60 6l155 -393q256 -70 420 -264q139 -117 218 -287t79 -379q0 -190 -64.5 -348t-178 -269.5t-270.5 -173t-341 -61.5q-217 0 -390 78t-290 219q-137 115 -213 282t-76 376z M47 799q0 -182 61.5 -334t172 -260.5t265.5 -169t339 -60.5q178 0 329.5 59.5t262 167t172 260t61.5 337.5q0 180 -62.5 332.5t-173 263t-261 172t-328.5 61.5q-182 0 -335 -63.5t-265.5 -175t-175 -263t-62.5 -327.5zM481 2050l260 -348h260l-153 389zM498 799 q0 88 29.5 160.5t82 124t123 79t152.5 27.5q76 0 143.5 -26.5t118.5 -77t82 -123t31 -164.5q0 -82 -30 -155t-81 -128t-119.5 -87t-144.5 -32q-80 0 -150.5 33t-123 88t-83 128t-30.5 153zM629 696q0 -119 63 -213q86 -57 193 -57q70 0 133 29.5t110.5 81t75 119t27.5 143.5 q0 61 -15.5 113.5t-41.5 93.5q-82 53 -187 53q-76 0 -141.5 -25.5t-113.5 -74t-75.5 -115t-27.5 -148.5z" />
<glyph unicode="&#xd3;" horiz-adv-x="1882" d="M18 799q0 178 61.5 330.5t172 267t262.5 183.5t332 75l8 18h-143l180 449l438 -49l-63 -84l166 -19l-271 -354q117 -37 213 -101.5t170 -152.5q139 -117 218 -287t79 -379q0 -190 -64.5 -348t-178 -269.5t-270.5 -173t-341 -61.5q-217 0 -390 78t-290 219 q-137 115 -213 282t-76 376zM47 799q0 -182 61.5 -334t172 -260.5t265.5 -169t339 -60.5q178 0 329.5 59.5t262 167t172 260t61.5 337.5q0 180 -62.5 332.5t-173 263t-261 172t-328.5 61.5q-182 0 -335 -63.5t-265.5 -175t-175 -263t-62.5 -327.5zM498 799q0 88 29.5 160.5 t82 124t123 79t152.5 27.5q76 0 143.5 -26.5t118.5 -77t82 -123t31 -164.5q0 -82 -30 -155t-81 -128t-119.5 -87t-144.5 -32q-80 0 -150.5 33t-123 88t-83 128t-30.5 153zM629 696q0 -119 63 -213q86 -57 193 -57q70 0 133 29.5t110.5 81t75 119t27.5 143.5 q0 61 -15.5 113.5t-41.5 93.5q-82 53 -187 53q-76 0 -141.5 -25.5t-113.5 -74t-75.5 -115t-27.5 -148.5zM754 1702h260l262 348l-367 41z" />
<glyph unicode="&#xd4;" horiz-adv-x="1882" d="M18 799q0 141 40 268t113 231.5t175.5 182.5t226.5 123l48 69h-172l278 404h307l70 -103h33l272 -403h-135q78 -39 146.5 -91.5t123.5 -117.5q139 -117 218 -287t79 -379q0 -190 -64.5 -348t-178 -269.5t-270.5 -173t-341 -61.5q-217 0 -390 78t-290 219 q-137 115 -213 282t-76 376zM47 799q0 -182 61.5 -334t172 -260.5t265.5 -169t339 -60.5q178 0 329.5 59.5t262 167t172 260t61.5 337.5q0 180 -62.5 332.5t-173 263t-261 172t-328.5 61.5q-182 0 -335 -63.5t-265.5 -175t-175 -263t-62.5 -327.5zM498 799q0 88 29.5 160.5 t82 124t123 79t152.5 27.5q76 0 143.5 -26.5t118.5 -77t82 -123t31 -164.5q0 -82 -30 -155t-81 -128t-119.5 -87t-144.5 -32q-80 0 -150.5 33t-123 88t-83 128t-30.5 153zM502 1702h205l174 164l157 -164h213l-233 346h-277zM629 696q0 -119 63 -213q86 -57 193 -57 q70 0 133 29.5t110.5 81t75 119t27.5 143.5q0 61 -15.5 113.5t-41.5 93.5q-82 53 -187 53q-76 0 -141.5 -25.5t-113.5 -74t-75.5 -115t-27.5 -148.5zM911 1655q39 0 76 -4t74 -11l-82 80z" />
<glyph unicode="&#xd5;" horiz-adv-x="1882" d="M18 799q0 135 37 257t103.5 224t162 180t211.5 127v90l-102 13v57q0 150 74 226.5t192 76.5q47 0 90 -14.5t82 -31.5t72 -31.5t59 -14.5q39 0 55.5 18.5t30.5 67.5l234 -27q0 -12 2 -22q0 -10 1 -22.5t1 -22.5q0 -6 -1 -12.5t-1 -12.5l100 -10q0 -12 2 -23q0 -10 1 -22 t1 -23q0 -111 -45 -178t-114 -94q164 -78 278 -213q139 -117 218 -287t79 -379q0 -190 -64.5 -348t-178 -269.5t-270.5 -173t-341 -61.5q-217 0 -390 78t-290 219q-137 115 -213 282t-76 376zM47 799q0 -182 61.5 -334t172 -260.5t265.5 -169t339 -60.5q178 0 329.5 59.5 t262 167t172 260t61.5 337.5q0 180 -62.5 332.5t-173 263t-261 172t-328.5 61.5q-182 0 -335 -63.5t-265.5 -175t-175 -263t-62.5 -327.5zM459 1716l188 -22q14 51 34.5 69.5t70.5 18.5q35 0 69.5 -14.5t73.5 -32t81 -31.5t91 -14q92 0 159.5 63.5t67.5 196.5q0 8 -1 15 t-1 13v13l-186 22q-14 -47 -34.5 -65.5t-72.5 -18.5q-33 0 -69.5 14.5t-75.5 32t-79 31.5t-79 14q-106 0 -171.5 -69.5t-65.5 -204.5v-31zM498 799q0 88 29.5 160.5t82 124t123 79t152.5 27.5q76 0 143.5 -26.5t118.5 -77t82 -123t31 -164.5q0 -82 -30 -155t-81 -128 t-119.5 -87t-144.5 -32q-80 0 -150.5 33t-123 88t-83 128t-30.5 153zM629 696q0 -119 63 -213q86 -57 193 -57q70 0 133 29.5t110.5 81t75 119t27.5 143.5q0 61 -15.5 113.5t-41.5 93.5q-82 53 -187 53q-76 0 -141.5 -25.5t-113.5 -74t-75.5 -115t-27.5 -148.5z" />
<glyph unicode="&#xd6;" horiz-adv-x="1882" d="M18 799q0 143 41 271t116 233.5t179.5 183.5t231.5 121v65h-103v336h336v-102h103v-252q31 0 60.5 -3t57.5 -7v28h-102v336h334v-102h102v-336h-100q78 -39 146.5 -91.5t123.5 -117.5q139 -117 218 -287t79 -379q0 -190 -64.5 -348t-178 -269.5t-270.5 -173t-341 -61.5 q-217 0 -390 78t-290 219q-137 115 -213 282t-76 376zM47 799q0 -182 61.5 -334t172 -260.5t265.5 -169t339 -60.5q178 0 329.5 59.5t262 167t172 260t61.5 337.5q0 180 -62.5 332.5t-173 263t-261 172t-328.5 61.5q-182 0 -335 -63.5t-265.5 -175t-175 -263t-62.5 -327.5z M498 799q0 88 29.5 160.5t82 124t123 79t152.5 27.5q76 0 143.5 -26.5t118.5 -77t82 -123t31 -164.5q0 -82 -30 -155t-81 -128t-119.5 -87t-144.5 -32q-80 0 -150.5 33t-123 88t-83 128t-30.5 153zM512 1702h279v278h-279v-278zM629 696q0 -119 63 -213q86 -57 193 -57 q70 0 133 29.5t110.5 81t75 119t27.5 143.5q0 61 -15.5 113.5t-41.5 93.5q-82 53 -187 53q-76 0 -141.5 -25.5t-113.5 -74t-75.5 -115t-27.5 -148.5zM967 1702h276v278h-276v-278z" />
<glyph unicode="&#xd7;" horiz-adv-x="1640" d="M115 1130l307 306l342 -349l340 349l401 -402l-348 -340l348 -340l-311 -305l-336 346l-338 -346l-401 402l344 335zM156 1130l352 -339l-348 -340l258 -258l340 348l340 -348l264 264l-348 340l348 340l-258 258l-340 -348l-342 348z" />
<glyph unicode="&#xd8;" horiz-adv-x="1933" d="M43 -145l238 323q-27 27 -67 77t-77 126t-63.5 177t-26.5 233q0 184 65.5 341.5t180.5 274.5t273.5 183.5t344.5 66.5q152 0 248 -27.5t144 -48.5l108 150h352l-75 -103h178l-236 -321q29 -31 70 -81t79 -125t64.5 -177.5t26.5 -235.5q0 -190 -64.5 -346t-178.5 -266.5 t-271.5 -171t-341.5 -60.5q-141 0 -244.5 22.5t-157.5 41.5l-114 -156h-353l74 103h-176zM76 791q0 -135 29.5 -240t69.5 -178.5t80 -120.5t62 -70l-219 -299h283l121 162q39 -16 141 -43t268 -27q178 0 330 58.5t262.5 165t173 257t62.5 335.5q0 135 -29 236t-68.5 176 t-81.5 124t-69 78l217 297h-283l-114 -158q-41 20 -138.5 52t-261.5 32q-180 0 -333.5 -64.5t-265 -177t-174 -265t-62.5 -330.5zM528 791q0 88 30 162.5t82 128t121.5 83t151.5 29.5q76 0 143.5 -28.5t119 -81t82 -127t30.5 -166.5q0 -82 -29.5 -154t-81 -125t-120 -84 t-144.5 -31q-80 0 -150.5 31t-122.5 85t-82 126t-30 152zM659 688q0 -115 62 -205q86 -57 192 -57q70 0 133.5 28.5t110.5 78t75 116t28 142.5q0 66 -16.5 120t-45.5 99q-82 53 -182 53q-76 0 -140.5 -27.5t-112.5 -77t-76 -119t-28 -151.5z" />
<glyph unicode="&#xd9;" horiz-adv-x="1613" d="M18 680v934h506v-103h103v-925q0 -41 3 -86t17 -84q33 -12 82 -13q74 0 116 28t62.5 69t25.5 91t5 97v883h-256l-78 102h-24l-299 400l438 49l43 -109l59 6l160 -405h461v-103h102v-933q0 -123 -27.5 -253t-104.5 -236.5t-216 -175.5t-362 -69q-227 0 -366.5 64.5 t-215.5 165.5q-74 55 -120 125.5t-70.5 150.5t-34 165t-9.5 165zM47 680q0 -121 23.5 -246t95.5 -226.5t207 -167t358 -65.5q215 0 348 65.5t207 168t100.5 227.5t26.5 244v905h-446v-897q0 -51 -5.5 -106.5t-29 -101.5t-71.5 -75.5t-132 -29.5q-82 0 -129 29.5t-69.5 75.5 t-28.5 101.5t-6 106.5v897h-449v-905zM334 2050l260 -348h260l-154 389z" />
<glyph unicode="&#xda;" horiz-adv-x="1613" d="M18 680v934h506v-103h103v-925q0 -41 3 -86t17 -84q33 -12 82 -13q74 0 116 28t62.5 69t25.5 91t5 97v883h-274l41 102h-144l180 449l439 -49l-64 -84l166 -19l-270 -356h430v-103h102v-933q0 -123 -27.5 -253t-104.5 -236.5t-216 -175.5t-362 -69q-227 0 -366.5 64.5 t-215.5 165.5q-74 55 -120 125.5t-70.5 150.5t-34 165t-9.5 165zM47 680q0 -121 23.5 -246t95.5 -226.5t207 -167t358 -65.5q215 0 348 65.5t207 168t100.5 227.5t26.5 244v905h-446v-897q0 -51 -5.5 -106.5t-29 -101.5t-71.5 -75.5t-132 -29.5q-82 0 -129 29.5t-69.5 75.5 t-28.5 101.5t-6 106.5v897h-449v-905zM604 1702h260l262 348l-366 41z" />
<glyph unicode="&#xdb;" horiz-adv-x="1613" d="M18 680v934h414l41 59h-172l279 404h307l69 -103h33l244 -360h209v-103h102v-933q0 -123 -27.5 -253t-104.5 -236.5t-216 -175.5t-362 -69q-227 0 -366.5 64.5t-215.5 165.5q-74 55 -120 125.5t-70.5 150.5t-34 165t-9.5 165zM47 680q0 -121 23.5 -246t95.5 -226.5 t207 -167t358 -65.5q215 0 348 65.5t207 168t100.5 227.5t26.5 244v905h-446v-897q0 -51 -5.5 -106.5t-29 -101.5t-71.5 -75.5t-132 -29.5q-82 0 -129 29.5t-69.5 75.5t-28.5 101.5t-6 106.5v897h-449v-905zM354 1702h205l174 164l158 -164h213l-234 346h-276zM524 1511h103 v-925q0 -41 3 -86t17 -84q33 -12 82 -13q74 0 116 28t62.5 69t25.5 91t5 97v926l-107 106l-157 -149h-150v-60z" />
<glyph unicode="&#xdc;" horiz-adv-x="1613" d="M18 680v934h420v59h-102v336h336v-102h102v-336h-250v-60h103v-925q0 -41 3 -86t17 -84q33 -12 82 -13q74 0 116 28t62.5 69t25.5 91t5 97v883h-45v102h-102v336h333v-102h103v-293h215v-103h102v-933q0 -123 -27.5 -253t-104.5 -236.5t-216 -175.5t-362 -69 q-227 0 -366.5 64.5t-215.5 165.5q-74 55 -120 125.5t-70.5 150.5t-34 165t-9.5 165zM47 680q0 -121 23.5 -246t95.5 -226.5t207 -167t358 -65.5q215 0 348 65.5t207 168t100.5 227.5t26.5 244v905h-446v-897q0 -51 -5.5 -106.5t-29 -101.5t-71.5 -75.5t-132 -29.5 q-82 0 -129 29.5t-69.5 75.5t-28.5 101.5t-6 106.5v897h-449v-905zM365 1702h278v278h-278v-278zM819 1702h277v278h-277v-278z" />
<glyph unicode="&#xdd;" horiz-adv-x="1808" d="M-51 1614h592l55 -103h47l223 -413l291 516h590l-68 -103h170l-655 -1009v-633h-508v102h-102v631zM0 1585l612 -975v-610h451v614l631 971h-520l-332 -588l-318 588h-524zM674 1673l180 449l438 -49l-63 -84l166 -19l-303 -399h-316l41 102h-143zM717 1702h260l262 348 l-367 41z" />
<glyph unicode="&#xde;" horiz-adv-x="1607" d="M49 -29v1643h504v-103h102v-49h101q80 0 160.5 -9t157.5 -35.5t144.5 -72t120.5 -114.5q100 -74 164 -207t64 -350q0 -219 -64.5 -350t-167 -201t-228.5 -91.5t-249 -21.5h-203v-141h-503v102h-103zM78 0h446v141h232q119 0 239.5 20.5t219 87t160 191.5t61.5 336 t-62.5 340t-161 199.5t-219.5 94.5t-237 24h-232v151h-446v-1585zM524 573v428h191q49 0 103 -3t98.5 -23.5t73 -65.5t28.5 -127q0 -61 -17.5 -102t-48 -64.5t-73.5 -33t-95 -9.5h-260zM655 602h129q45 0 83 8t64.5 28.5t42 55.5t15.5 88q0 37 -10 72q-39 12 -80 14t-82 2 h-162v-268z" />
<glyph unicode="&#xdf;" horiz-adv-x="1433" d="M49 -29v1102q0 100 16.5 203.5t77 188.5t176 138.5t314.5 53.5q160 0 282.5 -51.5t188.5 -149.5q78 -53 121 -132t43 -183q0 -66 -12.5 -116t-32 -87t-44 -63.5t-49.5 -45.5q33 -31 64 -69q39 -29 75 -69t63.5 -94t45 -124t17.5 -158q0 -102 -31 -192t-87 -155.5 t-135 -103.5t-177 -38q-41 0 -88.5 8t-88 18.5t-73.5 20.5t-45 16l20 66q-20 4 -38.5 9t-35.5 11v-106h-464v102h-103zM78 0h407v1079q0 33 2 72t15.5 72.5t42 56.5t82.5 23q59 0 96 -33t37 -94q0 -37 -12.5 -60.5t-31 -38t-39 -21.5t-36.5 -9v-330q25 0 63.5 -7.5t74.5 -29 t61.5 -59t25.5 -99.5q0 -29 -11 -63.5t-32.5 -64t-51.5 -50t-64 -20.5l-105 -316q10 -4 38 -13t63.5 -17.5t76.5 -14.5t82 -6q92 0 166 36t126 98.5t81 146.5t29 180q0 125 -34 212t-84 144t-106.5 89t-99.5 46q20 10 53 34t65 62.5t55.5 97t23.5 140.5q0 92 -38 164 t-104.5 121t-159 74.5t-202.5 25.5q-188 0 -299 -51t-167 -131t-72.5 -178.5t-16.5 -194.5v-1073zM616 141l70 211q33 0 61.5 17.5t48 43t31 55.5t11.5 54q0 23 -13.5 36t-33 19.5t-41 7.5t-35.5 1v86q-29 10 -54.5 13t-44.5 3v-547zM623 1071q33 6 68.5 27.5t37.5 72.5 q-53 0 -75.5 -29.5t-30.5 -70.5z" />
<glyph unicode="&#xe0;" horiz-adv-x="1468" d="M18 541q0 123 38 232.5t107.5 191.5t165 129t210.5 47q12 0 23 -1t24 -1l-29 37h-25l-299 399l439 49l43 -108l59 6l160 -406h369v-102h102v-1145h-459v68q-49 -35 -118.5 -64t-170.5 -29q-121 0 -228 55.5t-183 153.5q-102 78 -165 203t-63 285zM47 541 q0 -125 42 -229.5t111.5 -179.5t162 -116t192.5 -41q59 0 107.5 11.5t86 30t68.5 40t55 41.5v-98h402v1087h-387l-15 -96q-20 14 -52 36t-72.5 40t-93 31.5t-115.5 13.5q-109 0 -199 -45t-155.5 -123t-101.5 -182.5t-36 -220.5zM287 1552l260 -348h260l-154 389zM446 543 q0 43 16.5 84t46.5 71.5t68.5 49t84.5 18.5q43 0 82.5 -17.5t69.5 -48t47.5 -71.5t17.5 -86q0 -43 -17.5 -84t-46.5 -73t-68.5 -50.5t-84.5 -18.5q-47 0 -86 19.5t-68 50.5t-45.5 72t-16.5 84zM578 440q0 -45 18 -82q31 -12 66 -12q39 0 73.5 16.5t60 44t40 62.5t14.5 74 t-16 78q-16 6 -34 10t-36 4q-39 0 -73 -16.5t-59.5 -43t-39.5 -61.5t-14 -74zM799 1073l51 -31l4 31h-55z" />
<glyph unicode="&#xe1;" horiz-adv-x="1468" d="M18 541q0 123 38 232.5t107.5 191.5t165 129t210.5 47h26.5t26.5 -2l14 37h-143l180 448l438 -49l-63 -84l166 -18l-271 -357h390v-102h102v-1145h-459v68q-49 -35 -118.5 -64t-170.5 -29q-121 0 -228 55.5t-183 153.5q-102 78 -165 203t-63 285zM47 541 q0 -125 42 -229.5t111.5 -179.5t162 -116t192.5 -41q59 0 107.5 11.5t86 30t68.5 40t55 41.5v-98h402v1087h-387l-15 -96q-20 14 -52 36t-72.5 40t-93 31.5t-115.5 13.5q-109 0 -199 -45t-155.5 -123t-101.5 -182.5t-36 -220.5zM446 543q0 43 16.5 84t46.5 71.5t68.5 49 t84.5 18.5q43 0 82.5 -17.5t69.5 -48t47.5 -71.5t17.5 -86q0 -43 -17.5 -84t-46.5 -73t-68.5 -50.5t-84.5 -18.5q-47 0 -86 19.5t-68 50.5t-45.5 72t-16.5 84zM506 1204h260l262 348l-366 41zM578 440q0 -45 18 -82q31 -12 66 -12q39 0 73.5 16.5t60 44t40 62.5t14.5 74 t-16 78q-16 6 -34 10t-36 4q-39 0 -73 -16.5t-59.5 -43t-39.5 -61.5t-14 -74zM799 1073l51 -31l4 31h-55z" />
<glyph unicode="&#xe2;" horiz-adv-x="1468" d="M18 541q0 100 26 191t72 166t112.5 130t146.5 84l43 64h-172l278 403h307l70 -102h33l244 -361h125v-102h102v-1145h-459v68q-49 -35 -118.5 -64t-170.5 -29q-121 0 -228 55.5t-183 153.5q-102 78 -165 203t-63 285zM47 541q0 -125 42 -229.5t111.5 -179.5t162 -116 t192.5 -41q59 0 107.5 11.5t86 30t68.5 40t55 41.5v-98h402v1087h-387l-15 -96q-20 14 -52 36t-72.5 40t-93 31.5t-115.5 13.5q-109 0 -199 -45t-155.5 -123t-101.5 -182.5t-36 -220.5zM299 1204h205l174 164l158 -164h213l-234 346h-276zM446 543q0 43 16.5 84t46.5 71.5 t68.5 49t84.5 18.5q43 0 82.5 -17.5t69.5 -48t47.5 -71.5t17.5 -86q0 -43 -17.5 -84t-46.5 -73t-68.5 -50.5t-84.5 -18.5q-47 0 -86 19.5t-68 50.5t-45.5 72t-16.5 84zM578 440q0 -45 18 -82q31 -12 66 -12q39 0 73.5 16.5t60 44t40 62.5t14.5 74t-16 78q-16 6 -34 10t-36 4 q-39 0 -73 -16.5t-59.5 -43t-39.5 -61.5t-14 -74zM672 1124q57 -16 101 -37.5t77 -44.5l12 74h21l-107 107z" />
<glyph unicode="&#xe3;" horiz-adv-x="1468" d="M18 541q0 94 22.5 181t66 158.5t102.5 128t133 89.5v82l-102 12v57q0 150 73.5 226.5t192.5 76.5q45 0 88 -14t82 -31.5t72.5 -32t60.5 -14.5q39 0 55.5 18.5t30.5 67.5l233 -26q0 -12 2 -23q0 -10 1.5 -22.5t1.5 -22.5q0 -6 -1.5 -12t-1.5 -13l101 -10q0 -12 2 -22 q0 -10 1 -22.5t1 -22.5q0 -82 -25.5 -140.5t-68.5 -93.5h162v-102h102v-1145h-459v68q-49 -35 -118.5 -64t-170.5 -29q-121 0 -228 55.5t-183 153.5q-102 78 -165 203t-63 285zM47 541q0 -125 42 -229.5t111.5 -179.5t162 -116t192.5 -41q59 0 107.5 11.5t86 30t68.5 40 t55 41.5v-98h402v1087h-387l-15 -96q-20 14 -52 36t-72.5 40t-93 31.5t-115.5 13.5q-109 0 -199 -45t-155.5 -123t-101.5 -182.5t-36 -220.5zM268 1219l189 -23q14 51 34.5 69.5t69.5 18.5q35 0 70 -14.5t73.5 -31.5t81 -31.5t91.5 -14.5q92 0 159.5 63.5t67.5 196.5 q0 8 -1 15.5t-1 13.5v12l-187 23q-14 -47 -34.5 -65.5t-71.5 -18.5q-33 0 -70 14t-75.5 31.5t-78.5 32t-79 14.5q-106 0 -172 -70t-66 -205v-30zM446 543q0 43 16.5 84t46.5 71.5t68.5 49t84.5 18.5q43 0 82.5 -17.5t69.5 -48t47.5 -71.5t17.5 -86q0 -43 -17.5 -84 t-46.5 -73t-68.5 -50.5t-84.5 -18.5q-47 0 -86 19.5t-68 50.5t-45.5 72t-16.5 84zM578 440q0 -45 18 -82q31 -12 66 -12q39 0 73.5 16.5t60 44t40 62.5t14.5 74t-16 78q-16 6 -34 10t-36 4q-39 0 -73 -16.5t-59.5 -43t-39.5 -61.5t-14 -74zM612 1135q78 -10 137.5 -38 t100.5 -55l6 41q-20 6 -38.5 14.5t-35.5 16.5q-39 16 -67.5 27.5t-50.5 11.5q-36 0 -52 -18z" />
<glyph unicode="&#xe4;" horiz-adv-x="1468" d="M18 541q0 106 29 202.5t81 174t127 132t165 76.5v50h-103v335h336v-102h103v-315q29 -12 51 -25.5t43 -26.5l12 74h12v60h-102v335h334v-102h102v-293h95v-102h102v-1145h-459v68q-49 -35 -118.5 -64t-170.5 -29q-121 0 -228 55.5t-183 153.5q-102 78 -165 203t-63 285z M47 541q0 -125 42 -229.5t111.5 -179.5t162 -116t192.5 -41q59 0 107.5 11.5t86 30t68.5 40t55 41.5v-98h402v1087h-387l-15 -96q-20 14 -52 36t-72.5 40t-93 31.5t-115.5 13.5q-109 0 -199 -45t-155.5 -123t-101.5 -182.5t-36 -220.5zM346 1204h279v279h-279v-279zM446 543 q0 43 16.5 84t46.5 71.5t68.5 49t84.5 18.5q43 0 82.5 -17.5t69.5 -48t47.5 -71.5t17.5 -86q0 -43 -17.5 -84t-46.5 -73t-68.5 -50.5t-84.5 -18.5q-47 0 -86 19.5t-68 50.5t-45.5 72t-16.5 84zM578 440q0 -45 18 -82q31 -12 66 -12q39 0 73.5 16.5t60 44t40 62.5t14.5 74 t-16 78q-16 6 -34 10t-36 4q-39 0 -73 -16.5t-59.5 -43t-39.5 -61.5t-14 -74zM801 1204h276v279h-276v-279z" />
<glyph unicode="&#xe5;" horiz-adv-x="1468" d="M18 541q0 123 38 232.5t107.5 191.5t165 129t210.5 47q20 0 30 -2q-27 31 -43 59q-63 37 -102 101.5t-39 144.5q0 57 22.5 109.5t60.5 92.5t90 62.5t112 22.5q78 0 142.5 -39t100.5 -103q66 -39 105 -104.5t39 -143.5q0 -70 -31 -128t-82 -97h359v-102h102v-1145h-459v68 q-49 -35 -118.5 -64t-170.5 -29q-121 0 -228 55.5t-183 153.5q-102 78 -165 203t-63 285zM47 541q0 -125 42 -229.5t111.5 -179.5t162 -116t192.5 -41q59 0 107.5 11.5t86 30t68.5 40t55 41.5v-98h402v1087h-387l-15 -96q-20 14 -52 36t-72.5 40t-93 31.5t-115.5 13.5 q-109 0 -199 -45t-155.5 -123t-101.5 -182.5t-36 -220.5zM414 1444q0 -53 20.5 -99.5t55 -81t81 -55t99.5 -20.5q51 0 98 20.5t82 55t55.5 81t20.5 99.5t-20.5 100t-55.5 82t-81 55.5t-99 20.5t-99.5 -20.5t-81 -56.5t-55 -83t-20.5 -98zM446 543q0 43 16.5 84t46.5 71.5 t68.5 49t84.5 18.5q43 0 82.5 -17.5t69.5 -48t47.5 -71.5t17.5 -86q0 -43 -17.5 -84t-46.5 -73t-68.5 -50.5t-84.5 -18.5q-47 0 -86 19.5t-68 50.5t-45.5 72t-16.5 84zM555 1442q0 47 33 79.5t80 32.5t80.5 -32.5t33.5 -79.5t-33.5 -80t-80.5 -33t-80 33t-33 80zM578 440 q0 -45 18 -82q31 -12 66 -12q39 0 73.5 16.5t60 44t40 62.5t14.5 74t-16 78q-16 6 -34 10t-36 4q-39 0 -73 -16.5t-59.5 -43t-39.5 -61.5t-14 -74zM688 1360q23 4 40 21.5t24 39.5q-23 -6 -40.5 -22t-23.5 -39zM819 1061l31 -19l4 27q-14 -4 -35 -8z" />
<glyph unicode="&#xe6;" horiz-adv-x="2082" d="M20 319q0 131 62.5 227.5t169.5 147.5l-12 33l-52 -27l-127 318q66 35 152 61q74 23 180.5 42.5t243.5 19.5q104 0 203.5 -25.5t175.5 -75.5q72 47 140.5 74t170.5 27q154 0 284 -58.5t216 -169.5q104 -78 163.5 -200.5t59.5 -288.5q0 -6 -1 -12t-1 -13v-53h-287l162 -49 q-8 -12 -17.5 -27.5t-21.5 -31.5l141 -43q-23 -37 -64.5 -96.5t-110 -116t-171 -97.5t-243.5 -41q-92 0 -165 33t-126 74q-61 47 -111 108q-14 -27 -42.5 -63.5t-81 -70.5t-132.5 -57.5t-194 -23.5q-154 0 -255.5 49.5t-152.5 131.5q-78 51 -117 126.5t-39 167.5zM49 319 q0 -72 26.5 -135t81 -109t135.5 -73t189 -27q139 0 227.5 39t137.5 86q57 55 86 127q27 -72 80 -127q45 -47 122.5 -86t198.5 -39q135 0 230.5 36t160 85t101.5 100.5t55 84.5l-367 110q-10 -12 -22 -28.5t-29.5 -31t-41 -24.5t-56.5 -10q-55 0 -87 20.5t-47.5 48 t-19.5 58.5t-4 53h711q0 12 1 24.5t1 24.5q0 139 -46 249t-127 184.5t-188.5 113.5t-230.5 39q-102 0 -172 -27.5t-141 -78.5q-74 57 -170 81.5t-207 24.5q-135 0 -235.5 -16.5t-168.5 -36.5q-80 -23 -137 -53l107 -265q27 14 63.5 33t79.5 34t90 26.5t99 11.5 q111 0 181 -40t70 -108v-67q-37 23 -84 43q-41 16 -94 29.5t-116 13.5q-96 0 -177.5 -27.5t-139.5 -80t-92 -126t-34 -164.5zM430 352q0 57 47 97t133 40q33 0 66 -9t59.5 -25.5t42 -43t15.5 -59.5q0 -59 -49.5 -95t-133.5 -36q-68 0 -124 35t-56 96zM561 254q10 -2 23.5 -3 t25.5 -1q72 0 113 27.5t41 74.5q-25 6 -51 6q-70 0 -110 -30.5t-42 -73.5zM668 713q20 -6 36.5 -12.5t28.5 -10.5q14 -6 25 -8v16q-20 6 -43 9.5t-47 5.5zM1200 635q2 31 7 62.5t21.5 57t47.5 42t86 16.5q45 0 75.5 -16.5t47 -43t24 -57t7.5 -61.5h-316zM1337 346 q0 -14 2 -20h25q43 0 70 20h-97zM1380 664h105l-4 16q-5 2 -17 2q-53 0 -84 -18z" />
<glyph unicode="&#xe7;" horiz-adv-x="1257" d="M18 537q0 125 44 235.5t124 192.5t193 129t250 47q145 0 263 -59.5t206 -170.5q84 -70 147 -161l-371 -281q-16 35 -35.5 66.5t-43.5 52.5l-23 -17l-20 41q-20 4 -31 4q-68 0 -109 -48t-41 -124q0 -41 9 -67q10 -4 19 -4h19q49 0 86 36.5t64 96.5l377 -262l-15 -23 l117 -80q-72 -109 -175 -186.5t-243 -99.5q27 -29 39 -62q47 -20 79 -58t32 -100q0 -100 -86 -167.5t-240 -67.5q-74 0 -154.5 17.5t-140.5 39.5v72q-61 16 -102 31v229q35 -18 93.5 -43t123.5 -25q16 0 30.5 1.5t24.5 3.5l-55 47l25 43h-56l-71 59l28 51q-98 57 -159 140 q-106 80 -164 201.5t-58 269.5zM47 537q0 -98 28.5 -187.5t84 -162t134.5 -123t177 -72.5l-63 -111l45 -37h20q18 0 42 -3t46.5 -10t37.5 -19.5t15 -32.5q0 -12 -2 -26.5t-15 -28t-42 -22.5t-82 -9q-72 0 -117 17.5t-71 31.5v-162q51 -18 122.5 -33.5t143.5 -15.5 q141 0 219 59.5t78 147.5q0 55 -30 87t-74 49t-94 22.5t-89 7.5l49 71h8q170 0 292 73t194 188l-324 225q-23 -51 -61.5 -84t-100.5 -33q-82 0 -130 57.5t-48 145.5t48.5 144.5t129.5 56.5q70 0 107 -40t59 -92l320 242q-80 121 -200 187.5t-275 66.5q-131 0 -237.5 -45 t-183.5 -124t-119 -183.5t-42 -222.5z" />
<glyph unicode="&#xe8;" horiz-adv-x="1349" d="M14 543q0 115 35 215t99.5 177t155.5 128t206 70l-33 43h-24l-299 399l438 49l43 -108l59 6l168 -424q139 -51 232 -172q104 -78 162.5 -206t58.5 -294q0 -10 -3 -24.5t-7 -26.5q-4 -14 -9 -29h-284l172 -100q-2 -4 -4 -10q-4 -4 -7.5 -10.5t-7.5 -12.5l121 -70 q-47 -84 -125 -149q-66 -57 -173 -103.5t-263 -46.5q-166 0 -291 58.5t-203 163.5q-104 80 -160.5 201.5t-56.5 275.5zM43 543q0 -123 39 -227.5t113.5 -179.5t182 -118t245.5 -43q147 0 246.5 40t160.5 89q72 57 115 132l-291 170q-18 -31 -47 -54q-25 -20 -65 -36.5 t-93 -16.5q-59 0 -100 20.5t-66.5 48t-37 58.5t-11.5 51h740q2 8 4 17l4 16t2 18q0 135 -40 243t-114 183.5t-177 116.5t-232 41q-131 0 -238 -43t-182.5 -119t-116.5 -180t-41 -227zM207 1552l260 -348h260l-154 389zM434 635q0 31 10.5 61.5t33 55t58.5 41t87 16.5 q47 0 79.5 -16.5t52 -41t29 -55t9.5 -61.5h-359zM569 346q16 -8 36.5 -13t43.5 -5q47 0 84 18h-164zM649 664h113q0 4 -1 5t-1 5q-21 4 -35 4q-41 0 -76 -14z" />
<glyph unicode="&#xe9;" horiz-adv-x="1349" d="M14 543q0 123 40 228.5t112 184t174 126.5t229 57l15 37h-144l181 448l438 -49l-64 -84l166 -18l-287 -379q131 -55 220 -168q104 -78 162.5 -206t58.5 -294q0 -10 -3 -24.5t-7 -26.5q-4 -14 -9 -29h-284l172 -100q-2 -4 -4 -10q-4 -4 -7.5 -10.5t-7.5 -12.5l121 -70 q-47 -84 -125 -149q-66 -57 -173 -103.5t-263 -46.5q-166 0 -291 58.5t-203 163.5q-104 80 -160.5 201.5t-56.5 275.5zM43 543q0 -123 39 -227.5t113.5 -179.5t182 -118t245.5 -43q147 0 246.5 40t160.5 89q72 57 115 132l-291 170q-18 -31 -47 -54q-25 -20 -65 -36.5 t-93 -16.5q-59 0 -100 20.5t-66.5 48t-37 58.5t-11.5 51h740q2 8 4 17l4 16t2 18q0 135 -40 243t-114 183.5t-177 116.5t-232 41q-131 0 -238 -43t-182.5 -119t-116.5 -180t-41 -227zM434 635q0 31 10.5 61.5t33 55t58.5 41t87 16.5q47 0 79.5 -16.5t52 -41t29 -55 t9.5 -61.5h-359zM483 1204h260l263 348l-367 41zM569 346q16 -8 36.5 -13t43.5 -5q47 0 84 18h-164zM649 664h113q0 4 -1 5t-1 5q-21 4 -35 4q-41 0 -76 -14z" />
<glyph unicode="&#xea;" horiz-adv-x="1349" d="M14 543q0 180 81 318t227 212h-21l70 103h-172l278 403h307l70 -102h33l272 -404h-239q102 -55 174 -147q104 -78 162.5 -206t58.5 -294q0 -10 -3 -24.5t-7 -26.5q-4 -14 -9 -29h-284l172 -100q-2 -4 -4 -10q-4 -4 -7.5 -10.5t-7.5 -12.5l121 -70q-47 -84 -125 -149 q-66 -57 -173 -103.5t-263 -46.5q-166 0 -291 58.5t-203 163.5q-104 80 -160.5 201.5t-56.5 275.5zM43 543q0 -123 39 -227.5t113.5 -179.5t182 -118t245.5 -43q147 0 246.5 40t160.5 89q72 57 115 132l-291 170q-18 -31 -47 -54q-25 -20 -65 -36.5t-93 -16.5 q-59 0 -100 20.5t-66.5 48t-37 58.5t-11.5 51h740q2 8 4 17l4 16t2 18q0 135 -40 243t-114 183.5t-177 116.5t-232 41q-131 0 -238 -43t-182.5 -119t-116.5 -180t-41 -227zM252 1204h205l174 164l157 -164h213l-233 346h-276zM434 635q0 31 10.5 61.5t33 55t58.5 41t87 16.5 q47 0 79.5 -16.5t52 -41t29 -55t9.5 -61.5h-359zM569 346q16 -8 36.5 -13t43.5 -5q47 0 84 18h-164zM643 1141q55 -2 106.5 -11.5t98.5 -25.5l-119 119zM649 664h113q0 4 -1 5t-1 5q-21 4 -35 4q-41 0 -76 -14z" />
<glyph unicode="&#xeb;" horiz-adv-x="1349" d="M14 543q0 182 84 322.5t234 211.5v99h-103v335h336v-102h103v-270q31 -2 60.5 -6.5t57.5 -10.5v54h-102v335h334v-102h102v-336h-200q102 -55 174 -147q104 -78 162.5 -206t58.5 -294q0 -10 -3 -24.5t-7 -26.5q-4 -14 -9 -29h-284l172 -100q-2 -4 -4 -10 q-4 -4 -7.5 -10.5t-7.5 -12.5l121 -70q-47 -84 -125 -149q-66 -57 -173 -103.5t-263 -46.5q-166 0 -291 58.5t-203 163.5q-104 80 -160.5 201.5t-56.5 275.5zM43 543q0 -123 39 -227.5t113.5 -179.5t182 -118t245.5 -43q147 0 246.5 40t160.5 89q72 57 115 132l-291 170 q-18 -31 -47 -54q-25 -20 -65 -36.5t-93 -16.5q-59 0 -100 20.5t-66.5 48t-37 58.5t-11.5 51h740q2 8 4 17l4 16t2 18q0 135 -40 243t-114 183.5t-177 116.5t-232 41q-131 0 -238 -43t-182.5 -119t-116.5 -180t-41 -227zM258 1204h279v279h-279v-279zM434 635 q0 31 10.5 61.5t33 55t58.5 41t87 16.5q47 0 79.5 -16.5t52 -41t29 -55t9.5 -61.5h-359zM569 346q16 -8 36.5 -13t43.5 -5q47 0 84 18h-164zM649 664h113q0 4 -1 5t-1 5q-21 4 -35 4q-41 0 -76 -14zM713 1204h276v279h-276v-279z" />
<glyph unicode="&#xec;" horiz-adv-x="686" d="M-90 1575l438 49l43 -108l60 6l178 -449h-115v-59h102v-1145h-464v102h-103v1145h230l-46 60h-24zM-37 1552l260 -348h260l-153 389zM78 0h407v1087h-407v-1087z" />
<glyph unicode="&#xed;" horiz-adv-x="686" d="M37 1176l180 448l438 -49l-63 -84l166 -18l-271 -357h27v-102h102v-1145h-464v102h-103v1145h107l24 60h-143zM78 0h407v1087h-407v-1087zM80 1204h260l262 348l-366 41z" />
<glyph unicode="&#xee;" horiz-adv-x="686" d="M-143 1176l278 403h307l70 -102h33l272 -404h-280l-23 23v-82h102v-1145h-464v102h-103v1102h-90l70 103h-172zM-90 1204h205l174 164l157 -164h213l-233 346h-276zM78 0h407v1087h-407v-1087zM274 1116h220l-107 107z" />
<glyph unicode="&#xef;" horiz-adv-x="686" d="M-113 1176v335h336v-102h103v-293h118v60h-102v335h334v-102h102v-336h-264v-59h102v-1145h-464v102h-103v1102h-59v103h-103zM-84 1204h279v279h-279v-279zM78 0h407v1087h-407v-1087zM371 1204h276v279h-276v-279z" />
<glyph unicode="&#xf0;" horiz-adv-x="1419" d="M0 530q0 98 27.5 188.5t83 163t135.5 122t184 63.5l-10 35l-66 -19l-78 267l91 24q-43 29 -83 53.5t-69 42.5q-37 23 -65 39h63q-35 23 -64.5 41.5t-52.5 32.5q-27 16 -49 29h635l166 -101l276 76l33 -121l70 19l76 -268l-111 -29q92 -131 140 -292t48 -331 q0 -205 -61.5 -344t-157.5 -225t-218 -123t-241 -37q-166 0 -285.5 60.5t-193.5 158.5q-113 84 -168 210t-55 265zM29 530q0 -109 35.5 -210t107.5 -180t179.5 -126t248.5 -47q115 0 230.5 36t209 118t151.5 216t58 331q0 178 -52 344t-157 295l123 34l-59 209l-258 -69 l-172 102h-522q45 -27 98 -61q45 -29 100.5 -68t114.5 -84l-152 -41l60 -211l286 80q57 -59 93 -116.5t36 -108.5q0 -18 -6 -19q-8 0 -25.5 14.5t-50 31t-80.5 30.5t-118 14q-117 0 -206 -43t-149.5 -113.5t-92 -163.5t-31.5 -194zM428 547q0 25 5 57.5t23.5 62t54.5 50 t97 20.5q80 0 122 -30.5t63 -67.5q22 -43 24 -96q0 -43 -16.5 -82t-44 -67.5t-62.5 -46t-73 -17.5q-49 0 -85 20.5t-60.5 53t-36 70.5t-11.5 73zM559 444q0 -18 3 -38.5t11 -40.5q20 -6 48 -7q33 0 63.5 15.5t53 40t36.5 58.5t14 71q-2 8 -2 16q-2 8 -2 17.5t-4 19.5 q-35 10 -69 10q-53 0 -83 -17.5t-45.5 -43t-19.5 -53t-4 -48.5zM680 1042q25 -10 43.5 -19t32.5 -19q-4 14 -9.5 26t-13.5 27z" />
<glyph unicode="&#xf1;" horiz-adv-x="1339" d="M49 -29v1145h215v64l-102 12v57q0 150 73.5 226.5t192.5 76.5q41 0 83 -14t81 -31.5t74.5 -32t64.5 -14.5q39 0 55.5 18.5t30.5 67.5l234 -26q0 -12 2 -23q0 -10 1 -22.5t1 -22.5q0 -6 -1 -12t-1 -13l100 -10q0 -12 2 -22q0 -10 1 -22.5t1 -22.5q0 -96 -33.5 -159 t-89.5 -95q31 -18 54.5 -44t39.5 -55q76 -41 112 -116.5t36 -173.5v-838h-469v102h-102v621v23.5t-3 27.5q-29 -2 -46 -17.5t-26 -37t-11.5 -47t-2.5 -47.5v-625h-464v102h-103zM78 0h407v596q0 29 4.5 60.5t16.5 57t36.5 43t67.5 17.5t67.5 -18.5t37 -45t15.5 -59.5t3 -59 v-592h412v809q0 131 -72 217t-225 86q-68 0 -123 -16.5t-100 -41t-80 -55t-60 -59.5l-12 147h-395v-1087zM190 1219l189 -23q14 51 34.5 69.5t69.5 18.5q35 0 70 -14.5t74 -31.5t81 -31.5t91 -14.5q92 0 159.5 63.5t67.5 196.5q0 8 -1 15.5t-1 13.5v12l-186 23 q-14 -47 -35 -65.5t-72 -18.5q-33 0 -69.5 14t-75.5 31.5t-79 32t-79 14.5q-106 0 -172 -70t-66 -205v-30zM504 1063l2 -49h12q35 29 79 56.5t99 45.5q-31 14 -59.5 25.5t-50.5 11.5q-35 0 -51.5 -18.5t-30.5 -71.5z" />
<glyph unicode="&#xf2;" horiz-adv-x="1404" d="M18 543q0 113 37 214t104.5 180t165 130t220.5 68l-31 41h-25l-299 399l439 49l43 -108l59 6l170 -432q74 -29 133.5 -75t106.5 -106q106 -84 164.5 -205.5t58.5 -263.5q0 -121 -43 -229.5t-123 -190t-195.5 -129t-261.5 -47.5q-166 0 -292.5 61.5t-206.5 166.5 q-109 82 -166.5 204.5t-57.5 266.5zM47 543q0 -117 41 -220.5t118 -180t186.5 -122t246.5 -45.5q139 0 248.5 45.5t186.5 123t118 181t41 218.5q0 117 -42 220t-120 181t-187.5 123t-244.5 45t-244.5 -45t-186.5 -122t-119 -180t-42 -222zM244 1552l260 -348h260l-154 389z M440 543q0 41 15.5 76.5t42 63.5t63.5 44t78 16q43 0 80 -16t63.5 -44t42 -64.5t15.5 -75.5q0 -41 -15.5 -77t-43 -62.5t-63.5 -43t-79 -16.5q-41 0 -77 16.5t-63.5 43t-43 62.5t-15.5 77zM571 440q0 -27 11 -57q31 -10 57 -10q37 0 67.5 14t54 36.5t37 53.5t13.5 66 q0 29 -10 59q-31 10 -60 10q-72 0 -121 -51t-49 -121z" />
<glyph unicode="&#xf3;" horiz-adv-x="1404" d="M18 543q0 119 41 225t116 186t183.5 129.5t243.5 55.5l14 37h-143l180 448l439 -49l-64 -84l166 -18l-291 -383q147 -63 238 -181q106 -84 164.5 -205.5t58.5 -263.5q0 -121 -43 -229.5t-123 -190t-195.5 -129t-261.5 -47.5q-166 0 -292.5 61.5t-206.5 166.5 q-109 82 -166.5 204.5t-57.5 266.5zM47 543q0 -117 41 -220.5t118 -180t186.5 -122t246.5 -45.5q139 0 248.5 45.5t186.5 123t118 181t41 218.5q0 117 -42 220t-120 181t-187.5 123t-244.5 45t-244.5 -45t-186.5 -122t-119 -180t-42 -222zM440 543q0 41 15.5 76.5t42 63.5 t63.5 44t78 16q43 0 80 -16t63.5 -44t42 -64.5t15.5 -75.5q0 -41 -15.5 -77t-43 -62.5t-63.5 -43t-79 -16.5q-41 0 -77 16.5t-63.5 43t-43 62.5t-15.5 77zM516 1204h260l262 348l-366 41zM571 440q0 -27 11 -57q31 -10 57 -10q37 0 67.5 14t54 36.5t37 53.5t13.5 66 q0 29 -10 59q-31 10 -60 10q-72 0 -121 -51t-49 -121z" />
<glyph unicode="&#xf4;" horiz-adv-x="1404" d="M18 543q0 174 83 314t233 216h-21l70 103h-172l278 403h308l69 -102h33l272 -404h-231q121 -61 201 -164q106 -84 164.5 -205.5t58.5 -263.5q0 -121 -43 -229.5t-123 -190t-196 -129t-261 -47.5q-166 0 -292.5 61.5t-206.5 166.5q-109 82 -166.5 204.5t-57.5 266.5z M47 543q0 -117 41 -220.5t118 -180t186.5 -122t246.5 -45.5q139 0 248.5 45.5t186.5 123t118 181t41 218.5q0 117 -42 220t-120 181t-187.5 123t-244.5 45t-244.5 -45t-186.5 -122t-119 -180t-42 -222zM264 1204h205l174 164l158 -164h213l-234 346h-276zM440 543 q0 41 15.5 76.5t42 63.5t63.5 44t78 16q43 0 80 -16t63.5 -44t42 -64.5t15.5 -75.5q0 -41 -15.5 -77t-43 -62.5t-63.5 -43t-79 -16.5q-41 0 -77 16.5t-63.5 43t-43 62.5t-15.5 77zM571 440q0 -27 11 -57q31 -10 57 -10q37 0 67.5 14t54 36.5t37 53.5t13.5 66q0 29 -10 59 q-31 10 -60 10q-72 0 -121 -51t-49 -121zM655 1141q106 -4 203 -35l-117 117z" />
<glyph unicode="&#xf5;" horiz-adv-x="1404" d="M18 543q0 180 88.5 323.5t247.5 214.5l-59 9v90l-102 12v57q0 150 73.5 226.5t192.5 76.5q41 0 83 -14t81 -31.5t74.5 -32t64.5 -14.5q39 0 55.5 18.5t30.5 67.5l233 -26q0 -12 2 -23q0 -10 1 -22.5t1 -22.5q0 -6 -1 -12t-1 -13l101 -10q0 -12 2 -22q0 -10 1 -22.5 t1 -22.5q0 -137 -66.5 -207t-163.5 -80q53 -29 99.5 -68t83.5 -86q106 -84 164.5 -205.5t58.5 -263.5q0 -121 -43 -229.5t-123 -190t-196 -129t-261 -47.5q-166 0 -292.5 61.5t-206.5 166.5q-109 82 -166.5 204.5t-57.5 266.5zM47 543q0 -117 41 -220.5t118 -180t186.5 -122 t246.5 -45.5q139 0 248.5 45.5t186.5 123t118 181t41 218.5q0 117 -42 220t-120 181t-187.5 123t-244.5 45t-244.5 -45t-186.5 -122t-119 -180t-42 -222zM221 1219l189 -23q14 51 34.5 69.5t69.5 18.5q35 0 69.5 -14.5t73.5 -31.5t81 -31.5t91 -14.5q92 0 160 63.5t68 196.5 q0 8 -1 15.5t-1 13.5v12l-187 23q-14 -47 -34.5 -65.5t-71.5 -18.5q-33 0 -70 14t-75.5 31.5t-78.5 32t-79 14.5q-106 0 -172 -70t-66 -205v-30zM440 543q0 41 15.5 76.5t42 63.5t63.5 44t78 16q43 0 80 -16t63.5 -44t42 -64.5t15.5 -75.5q0 -41 -15.5 -77t-43 -62.5 t-63.5 -43t-79 -16.5q-41 0 -77 16.5t-63.5 43t-43 62.5t-15.5 77zM567 1137q16 2 35 3t37 1h33q-16 4 -30.5 8t-25.5 4q-33 0 -49 -16zM571 440q0 -41 13.5 -54t54.5 -13q37 0 67.5 14t54 36.5t37 53.5t13.5 66q0 41 -14.5 55t-55.5 14q-72 0 -121 -51t-49 -121z" />
<glyph unicode="&#xf6;" horiz-adv-x="1404" d="M18 543q0 178 86 320.5t244 215.5v97h-102v335h336v-102h102v-270q31 -2 60.5 -6.5t58.5 -10.5v54h-103v335h334v-102h103v-336h-197q121 -61 201 -164q106 -84 164.5 -205.5t58.5 -263.5q0 -121 -43 -229.5t-123 -190t-195.5 -129t-261.5 -47.5q-166 0 -292.5 61.5 t-206.5 166.5q-109 82 -166.5 204.5t-57.5 266.5zM47 543q0 -117 41 -220.5t118 -180t186.5 -122t246.5 -45.5q139 0 248.5 45.5t186.5 123t118 181t41 218.5q0 117 -42 220t-120 181t-187.5 123t-244.5 45t-244.5 -45t-186.5 -122t-119 -180t-42 -222zM274 1204h279v279 h-279v-279zM440 543q0 41 15.5 76.5t42 63.5t63.5 44t78 16q43 0 80 -16t63.5 -44t42 -64.5t15.5 -75.5q0 -41 -15.5 -77t-43 -62.5t-63.5 -43t-79 -16.5q-41 0 -77 16.5t-63.5 43t-43 62.5t-15.5 77zM571 440q0 -27 11 -57q31 -10 57 -10q37 0 67.5 14t54 36.5t37 53.5 t13.5 66q0 29 -10 59q-31 10 -60 10q-72 0 -121 -51t-49 -121zM729 1204h277v279h-277v-279z" />
<glyph unicode="&#xf7;" horiz-adv-x="1634" d="M127 602v402h479q-35 31 -55.5 73.5t-20.5 96.5q0 47 18.5 88t49.5 71.5t72 49t88 18.5q68 0 120 -35t80 -90q57 -29 92 -83t35 -122q0 -33 -10 -67h309v-103h103v-401h-477q35 -33 55 -76t20 -94q0 -47 -17 -89t-48 -73t-72 -48.5t-88 -17.5q-68 0 -122 35t-83 92 q-55 29 -90 82.5t-35 120.5q0 39 11 68h-312v102h-102zM156 631h1200v344h-1200v-344zM559 432q0 -41 15.5 -78t43 -63.5t63.5 -42t77 -15.5q84 0 140 57.5t56 141.5q0 82 -56 140.5t-140 58.5q-41 0 -77 -15.5t-63.5 -43t-43 -63.5t-15.5 -77zM559 1174q0 -41 15.5 -78 t43 -63.5t63.5 -42t77 -15.5q84 0 140 57.5t56 141.5q0 82 -56 140t-140 58q-41 0 -77 -15.5t-63.5 -43t-43 -63.5t-15.5 -76z" />
<glyph unicode="&#xf8;" horiz-adv-x="1429" d="M-4 -145l197 264q-25 25 -52.5 63.5t-52.5 92t-40 121t-15 147.5q0 123 46 231.5t128 189t196.5 129t253.5 48.5q63 0 134 -7.5t129 -25.5l98 125h289l-80 -103h182l-197 -256q27 -27 56.5 -62.5t54.5 -86.5t40 -120.5t15 -164.5q0 -117 -41 -225.5t-118.5 -191 t-193.5 -132t-265 -49.5q-70 0 -141.5 8.5t-131.5 32.5l-100 -131h-289l76 103h-178zM51 -117h219l105 137q59 -31 132 -39t150 -8q143 0 253 47.5t184.5 126t113.5 182t39 214.5q0 96 -17.5 166.5t-44 121t-57 84t-55.5 58.5l176 231h-219l-100 -129q-57 23 -130 30t-143 7 q-133 0 -242.5 -45t-187 -123t-122 -181.5t-44.5 -219.5q0 -86 18.5 -156t44.5 -122t55.5 -87t51.5 -53zM455 543q0 39 15 74.5t43 63.5t65.5 44t80.5 16q41 0 77 -16t61.5 -44t41 -62.5t15.5 -73.5q0 -41 -15.5 -76t-43 -62.5t-63.5 -43t-79 -15.5q-41 0 -77.5 15.5 t-63.5 42t-42 61.5t-15 76zM586 440q0 -31 8 -53q31 -10 59 -10q37 0 68 13t54.5 37t36.5 53.5t13 64.5q0 29 -10 55q-27 10 -53 10q-74 0 -125 -51t-51 -119z" />
<glyph unicode="&#xf9;" horiz-adv-x="1335" d="M39 309v807h475v-102h102v-615v-27.5t2 -25.5q47 14 65.5 61.5t18.5 94.5v571h-108l-78 103h-24l-299 399l438 49l43 -108l59 6l160 -406h270v-102h103v-1145h-447l-8 96q-49 -43 -130 -82t-198 -39q-109 0 -180.5 39t-112.5 109q-78 43 -114.5 125t-36.5 192zM68 309 q0 -150 75.5 -242t237.5 -92q72 0 128 16.5t99 40t74 50.5t49 49l12 -131h392v1087h-404v-585q0 -31 -7 -63.5t-23.5 -60.5t-43 -45.5t-65.5 -17.5q-66 0 -86.5 51.5t-20.5 135.5v585h-417v-778zM246 1552l260 -348h260l-154 389z" />
<glyph unicode="&#xfa;" horiz-adv-x="1335" d="M39 309v807h475v-33l37 93h-143l180 448l438 -49l-63 -84l165 -18l-270 -357h305v-102h103v-1145h-447l-8 96q-49 -43 -130 -82t-198 -39q-109 0 -180.5 39t-112.5 109q-78 43 -114.5 125t-36.5 192zM68 309q0 -150 75.5 -242t237.5 -92q72 0 128 16.5t99 40t74 50.5 t49 49l12 -131h392v1087h-404v-585q0 -31 -7 -63.5t-23.5 -60.5t-43 -45.5t-65.5 -17.5q-66 0 -86.5 51.5t-20.5 135.5v585h-417v-778zM451 1204h260l262 348l-367 41zM514 1014h102v-615v-27.5t2 -25.5q47 14 65.5 61.5t18.5 94.5v571h-188v-59z" />
<glyph unicode="&#xfb;" horiz-adv-x="1335" d="M39 309v807h270l41 60h-172l279 403h307l70 -102h32l244 -361h53v-102h103v-1145h-447l-8 96q-49 -43 -130 -82t-198 -39q-109 0 -180.5 39t-112.5 109q-78 43 -114.5 125t-36.5 192zM68 309q0 -150 75.5 -242t237.5 -92q72 0 128 16.5t99 40t74 50.5t49 49l12 -131h392 v1087h-404v-585q0 -31 -7 -63.5t-23.5 -60.5t-43 -45.5t-65.5 -17.5q-66 0 -86.5 51.5t-20.5 135.5v585h-417v-778zM231 1204h205l174 164l158 -164h213l-233 346h-277zM514 1014h104v-668q47 14 65.5 61.5t18.5 94.5v614h113l-106 107l-158 -150h-37v-59z" />
<glyph unicode="&#xfc;" horiz-adv-x="1335" d="M39 309v807h274v60h-102v335h336v-102h102v-336h-135v-59h102v-615v-27.5t2 -25.5q47 14 65.5 61.5t18.5 94.5v614h66v60h-102v335h333v-102h103v-293h61v-102h103v-1145h-447l-8 96q-49 -43 -130 -82t-198 -39q-109 0 -180.5 39t-112.5 109q-78 43 -114.5 125t-36.5 192 zM68 309q0 -150 75.5 -242t237.5 -92q72 0 128 16.5t99 40t74 50.5t49 49l12 -131h392v1087h-404v-585q0 -31 -7 -63.5t-23.5 -60.5t-43 -45.5t-65.5 -17.5q-66 0 -86.5 51.5t-20.5 135.5v585h-417v-778zM240 1204h278v279h-278v-279zM694 1204h277v279h-277v-279z" />
<glyph unicode="&#xfd;" horiz-adv-x="1400" d="M-39 1116h449l34 -102h68l166 -486q53 147 104.5 296t104.5 292h440l-41 -102h144l-637 -1583h-471l38 102h-141l176 467q-106 272 -216.5 558t-217.5 558zM2 1087l424 -1087l-166 -438h412l612 1525h-377l-264 -741l-254 741h-387zM393 1176l180 448l439 -49l-64 -84 l166 -18l-303 -400h-315l41 103h-144zM436 1204h260l262 348l-366 41z" />
<glyph unicode="&#xfe;" horiz-adv-x="1454" d="M49 -332v1948h465v-103h102v-395q35 12 74 19.5t82 7.5q129 0 236.5 -53.5t179.5 -149.5q104 -78 165.5 -207t61.5 -297q0 -133 -40 -243.5t-111.5 -190.5t-171 -124t-220.5 -44q-102 0 -167.5 27.5t-114.5 68.5v-366h-438v102h-103zM78 -303h381v403q25 -25 54.5 -48 t66 -42.5t84 -31t106.5 -11.5q115 0 209 42t161.5 119t105.5 181.5t38 231.5q0 129 -39 235.5t-107.5 182t-161.5 116.5t-204 41q-98 0 -169 -28.5t-118 -75.5v575h-407v-1890zM471 551q0 41 15.5 77t42 63.5t62.5 44t77 16.5t76.5 -16.5t61 -44t41 -63.5t15.5 -77 q0 -86 -56 -143.5t-138 -57.5q-84 0 -140.5 57.5t-56.5 143.5zM602 449q0 -31 10 -62q23 -8 56 -8q70 0 118 50t48 122q0 29 -11 59q-27 10 -53 11q-72 0 -120 -51.5t-48 -120.5z" />
<glyph unicode="&#xff;" horiz-adv-x="1400" d="M-39 1116h391v60h-102v335h336v-102h102v-336h-264l20 -59h68l166 -486l192 545h-63v103h-102v335h333v-102h103v-293h186l-41 -102h144l-637 -1583h-471l38 102h-141l176 467q-106 272 -216.5 558t-217.5 558zM2 1087l424 -1087l-166 -438h412l612 1525h-377l-264 -741 l-254 741h-387zM279 1204h278v279h-278v-279zM733 1204h277v279h-277v-279z" />
<glyph unicode="&#x152;" horiz-adv-x="2756" d="M47 791q0 182 65.5 339.5t180.5 274.5t273.5 184.5t344.5 67.5q143 0 277 -43h1401v-103h102v-387h-827v-116h489v-103h103v-418h-592v-118h735v-103h102v-397h-1403q-66 -18 -139 -30.5t-145 -12.5q-213 0 -383 78t-287 215q-141 117 -219 289t-78 383zM76 791 q0 -182 61.5 -335t172 -263.5t264 -173t337.5 -62.5q76 0 146.5 11.5t136.5 31.5h1376v340h-837v278h591v361h-591v276h827v330h-1374q-66 20 -133.5 31.5t-141.5 11.5q-180 0 -333.5 -64.5t-265 -178t-174 -266t-62.5 -328.5zM524 791q0 88 30 162.5t82 128t122.5 83 t152.5 29.5q76 0 143.5 -28.5t119 -81t82 -127t30.5 -166.5q0 -82 -29.5 -154t-81 -125t-120 -84t-144.5 -31q-80 0 -150.5 31t-122.5 85t-83 126t-31 152zM655 688q0 -57 16.5 -108.5t45.5 -96.5q86 -57 194 -57q70 0 133.5 28.5t110.5 78t74.5 116t27.5 142.5 q0 66 -16 120t-45 99q-82 53 -182 53q-76 0 -141.5 -27.5t-113.5 -77t-76 -119t-28 -151.5z" />
<glyph unicode="&#x153;" horiz-adv-x="2136" d="M0 539q0 125 46 234.5t129 191.5t200 129t256 47q109 0 204 -31t173 -84q76 53 163.5 84t198.5 31q152 0 271.5 -55.5t197.5 -159.5q104 -78 162.5 -203t58.5 -297v-80h-317l182 -106q-2 -4 -4 -11l-5 -10t-7 -12l119 -70q-37 -82 -105 -147q-59 -55 -159.5 -100.5 t-258.5 -45.5q-123 0 -218 31t-177 90q-76 -53 -173 -87t-208 -34q-170 0 -299 62.5t-209 167.5q-106 82 -163.5 202.5t-57.5 262.5zM29 539q0 -117 42 -219.5t119.5 -179.5t188 -121t248.5 -44q117 0 212 34t169 93q82 -59 176 -93t219 -34q150 0 245 39t148 86 q63 55 94 127l-288 170q-14 -31 -39 -53q-23 -20 -59 -36.5t-91 -16.5q-61 0 -99 21.5t-60.5 51t-31 61.5t-8.5 52h715v51q0 139 -41 248t-114.5 183.5t-177 113.5t-226.5 39q-115 0 -201 -31.5t-161 -91.5q-74 59 -170.5 91t-206.5 32q-133 0 -244 -45t-190.5 -123 t-123.5 -182.5t-44 -222.5zM422 541q0 41 15.5 76.5t43 63.5t64.5 44t78 16q43 0 79.5 -16t62.5 -44t41 -64.5t15 -75.5q0 -41 -15 -76t-43 -61.5t-63.5 -42t-78.5 -15.5q-41 0 -77 15.5t-63.5 42t-43 61.5t-15.5 76zM553 438q0 -31 8 -53q14 -6 28.5 -8t31.5 -2 q72 0 122 49t50 117q0 29 -11 59q-31 10 -57 10q-72 0 -122 -51t-50 -121zM1212 635q0 31 5.5 61.5t21.5 57t47 43t82 16.5q49 0 81 -16.5t49.5 -43t23.5 -57t6 -61.5h-316zM1348 346q0 -6 4 -18q24 -9 61 -9q53 0 94 27h-159zM1397 664h100l-4 16q-4 0 -10.5 1t-12.5 1 q-23 0 -41 -5t-32 -13z" />
<glyph unicode="&#x178;" horiz-adv-x="1808" d="M-51 1614h592l8 -17v76h-103v336h336v-102h103v-336h-322l33 -60h47l223 -413q66 115 133.5 237.5t133.5 235.5h-129v102h-103v336h334v-102h102v-293h410l-68 -103h170l-655 -1009v-633h-508v102h-102v631zM0 1585l612 -975v-610h451v614l631 971h-520l-332 -588 l-318 588h-524zM475 1702h279v278h-279v-278zM930 1702h276v278h-276v-278z" />
<glyph unicode="&#x2c6;" horiz-adv-x="806" d="M-172 1176l278 403h308l69 -102h33l272 -404h-280l-150 150l-157 -150h-271l70 103h-172zM-119 1204h205l174 164l158 -164h213l-234 346h-276z" />
<glyph unicode="&#x2dc;" horiz-adv-x="964" d="M-25 1192v57q0 150 74 226.5t193 76.5q41 0 83 -14t80.5 -31.5t74.5 -32t65 -14.5q39 0 55 18.5t31 67.5l233 -26q0 -12 2 -23q0 -10 1 -22.5t1 -22.5q0 -6 -1 -12t-1 -13l101 -10q0 -12 2 -22q0 -10 1 -22.5t1 -22.5q0 -74 -20.5 -128.5t-55.5 -90t-82 -53t-98 -17.5 q-49 0 -94.5 14.5t-85 31.5t-73.5 31.5t-63 14.5q-35 0 -51 -18.5t-31 -71.5l-239 27v90zM4 1219l189 -23q14 51 34.5 69.5t69.5 18.5q35 0 69.5 -14.5t73.5 -31.5t81 -31.5t91 -14.5q92 0 160 63.5t68 196.5q0 8 -1 15.5t-1 13.5v12l-187 23q-14 -47 -34.5 -65.5 t-71.5 -18.5q-33 0 -70 14t-76 31.5t-78.5 32t-78.5 14.5q-106 0 -172 -70t-66 -205v-30z" />
<glyph unicode="&#x2000;" horiz-adv-x="1061" />
<glyph unicode="&#x2001;" horiz-adv-x="2122" />
<glyph unicode="&#x2002;" horiz-adv-x="1061" />
<glyph unicode="&#x2003;" horiz-adv-x="2122" />
<glyph unicode="&#x2004;" horiz-adv-x="707" />
<glyph unicode="&#x2005;" horiz-adv-x="530" />
<glyph unicode="&#x2006;" horiz-adv-x="353" />
<glyph unicode="&#x2007;" horiz-adv-x="353" />
<glyph unicode="&#x2008;" horiz-adv-x="265" />
<glyph unicode="&#x2009;" horiz-adv-x="424" />
<glyph unicode="&#x200a;" horiz-adv-x="117" />
<glyph unicode="&#x2010;" horiz-adv-x="880" d="M49 342v401h670v-102h102v-401h-669v102h-103zM78 371h612v344h-612v-344z" />
<glyph unicode="&#x2011;" horiz-adv-x="880" d="M49 342v401h670v-102h102v-401h-669v102h-103zM78 371h612v344h-612v-344z" />
<glyph unicode="&#x2012;" horiz-adv-x="880" d="M49 342v401h670v-102h102v-401h-669v102h-103zM78 371h612v344h-612v-344z" />
<glyph unicode="&#x2013;" horiz-adv-x="1523" d="M51 342v401h1282v-102h103v-401h-1282v102h-103zM80 371h1225v344h-1225v-344z" />
<glyph unicode="&#x2014;" horiz-adv-x="1701" d="M51 342v401h1456v-102h103v-401h-1456v102h-103zM80 371h1399v344h-1399v-344z" />
<glyph unicode="&#x2018;" horiz-adv-x="839" d="M53 989l240 625h395l-33 -103h136l-199 -624h-436l39 102h-142zM94 1018h375l180 567h-336z" />
<glyph unicode="&#x2019;" horiz-adv-x="839" d="M49 991l201 623h438l-41 -103h144l-246 -622h-393l32 102h-135zM88 1020h336l223 565h-377z" />
<glyph unicode="&#x201a;" horiz-adv-x="731" d="M6 -174l240 623h395l-33 -103h135l-198 -622h-436l38 102h-141zM47 -145h375l180 565h-336z" />
<glyph unicode="&#x201c;" horiz-adv-x="1345" d="M53 989l240 625h395l-33 -103h103l39 103h397l-33 -103h135l-198 -624h-439l39 102h-73l-33 -102h-436l39 102h-142zM94 1018h375l180 567h-336zM598 1018h377l180 567h-338z" />
<glyph unicode="&#x201d;" horiz-adv-x="1345" d="M49 991l201 623h438l-41 -103h76l33 103h436l-39 -103h141l-239 -622h-396l33 102h-108l-39 -102h-393l32 102h-135zM88 1020h336l223 565h-377zM596 1020h336l219 565h-375z" />
<glyph unicode="&#x201e;" horiz-adv-x="1345" d="M53 -174l240 623h395l-33 -103h99l39 103h395l-33 -103h135l-198 -622h-437l39 102h-69l-33 -102h-436l39 102h-142zM94 -145h375l180 565h-336zM594 -145h375l180 565h-336z" />
<glyph unicode="&#x2022;" horiz-adv-x="1433" d="M289 793q0 76 28.5 143.5t78.5 117.5t117 78.5t142 28.5q96 0 176 -45t130 -121q76 -49 120.5 -129t44.5 -176q0 -78 -28.5 -144.5t-78.5 -115.5t-117.5 -77.5t-143.5 -28.5q-98 0 -177 44t-128 117q-76 49 -120 129.5t-44 178.5zM317 793q0 -72 27 -133.5t73 -106.5 t107.5 -71.5t130.5 -26.5q70 0 132.5 26.5t108.5 71.5t72.5 106.5t26.5 133.5q0 70 -26.5 132t-72.5 108t-108.5 73t-132.5 27t-131 -27t-107 -73t-73 -108t-27 -132z" />
<glyph unicode="&#x2026;" horiz-adv-x="2273" d="M102 209q0 55 20.5 102t56.5 83t83 56.5t103 20.5q74 0 133 -38t94 -97q59 -33 97 -94.5t38 -135.5q0 -55 -20.5 -102t-55.5 -83t-82 -56.5t-102 -20.5q-76 0 -136.5 38t-92.5 98q-61 33 -98.5 93t-37.5 136zM131 209q0 -49 18.5 -91t50 -74t74 -50.5t91.5 -18.5t91 18.5 t72.5 50.5t49 74t18.5 91t-18.5 91t-49 74t-72.5 50t-91 18t-91.5 -18t-74 -50t-50 -74t-18.5 -91zM819 209q0 55 20.5 102t56.5 83t83 56.5t102 20.5q74 0 133.5 -38t94.5 -97q59 -33 97 -94.5t38 -135.5q0 -55 -20.5 -102t-55.5 -83t-82 -56.5t-102 -20.5q-76 0 -136.5 38 t-93.5 98q-61 33 -98 93t-37 136zM848 209q0 -49 18.5 -91t50 -74t73.5 -50.5t91 -18.5t91 18.5t73 50.5t49.5 74t18.5 91t-18.5 91t-49.5 74t-73 50t-91 18t-91 -18t-73.5 -50t-50 -74t-18.5 -91zM1536 209q0 55 20.5 102t56.5 83t83 56.5t102 20.5q74 0 133.5 -38 t93.5 -97q59 -33 97.5 -94.5t38.5 -135.5q0 -55 -20.5 -102t-55.5 -83t-82 -56.5t-102 -20.5q-76 0 -136.5 38t-93.5 98q-61 33 -98 93t-37 136zM1565 209q0 -49 18.5 -91t50 -74t73.5 -50.5t91 -18.5t91 18.5t73 50.5t49.5 74t18.5 91t-18.5 91t-49.5 74t-73 50t-91 18 t-91 -18t-73.5 -50t-50 -74t-18.5 -91z" />
<glyph unicode="&#x202f;" horiz-adv-x="424" />
<glyph unicode="&#x2039;" horiz-adv-x="841" d="M-33 711l307 405h457l-80 -102h183l-314 -408q72 -94 152 -204.5t149 -202.5h-448l-76 102h-27zM2 711l283 -381h379l-283 381l291 376h-385z" />
<glyph unicode="&#x203a;" horiz-adv-x="841" d="M-12 1116h456l78 -102h25l307 -406l-303 -409h-449l76 102h-178l303 410zM47 1087l291 -376l-283 -381h379l283 381l-285 376h-385z" />
<glyph unicode="&#x205f;" horiz-adv-x="530" />
<glyph unicode="&#x20ac;" horiz-adv-x="1316" d="M-29 475v277h86v55h-86v278h111q25 115 74 212.5t124.5 168t180 109.5t239.5 39q170 0 292 -60.5t208 -169.5q57 -47 105 -104l-314 -293q-53 53 -97 76.5t-91 23.5q-8 0 -14.5 -1t-14.5 -1h49l-18 -102h121l-49 -278h-113l-10 -56h120l-40 -229l16 10l420 -395 q-86 -90 -202 -140.5t-265 -50.5q-176 0 -296 54.5t-196 156.5q-74 53 -124 133t-78 185h-35v102h-103zM0 504h111q20 -121 64 -218.5t115.5 -167t173 -106.5t236.5 -37q143 0 249 42t177 118l-278 258q-45 -29 -76 -41t-72 -12q-133 0 -184 164h182l39 219h-252 q-2 18 -2 35.5v36.5v41h267l38 221h-274q23 78 69 120t117 42q53 0 97.5 -20.5t91.5 -68.5l274 256q-72 94 -185.5 146.5t-277.5 52.5q-135 0 -236.5 -37t-174 -106.5t-117.5 -166.5t-66 -218h-106v-221h86v-113h-86v-219z" />
<glyph unicode="&#x2122;" horiz-adv-x="2025" d="M10 1348v266h1235l31 -103h72l24 -86l60 189h419v-103h103v-993h-318v103h-102v108l-6 -18h-189l-32 102h-68v-295h-315v103h-103v624h-141v-727h-324v103h-102v624h-141v103h-103zM39 1376h244v-727h266v727h246v209h-756v-209zM850 649h258v668l149 -475h148l158 475 v-668h260v936h-371l-119 -377l-108 377h-375v-936z" />
<glyph unicode="&#x25fc;" horiz-adv-x="1116" d="M0 0v1116h1116v-1116h-1116z" />
</font>
</defs>
</svg>
